<?xml version="1.0" encoding="UTF-8" standalone="no"?>
<!DOCTYPE svg PUBLIC "-//W3C//DTD SVG 1.1//EN"
 "http://www.w3.org/Graphics/SVG/1.1/DTD/svg11.dtd">
<!-- Generated by graphviz version 12.2.1 (20241206.2353)
 -->
<!-- Pages: 1 -->
<svg width="2586pt" height="265pt"
 viewBox="0.00 0.00 2586.43 264.50" xmlns="http://www.w3.org/2000/svg" xmlns:xlink="http://www.w3.org/1999/xlink">
<g id="graph0" class="graph" transform="scale(1 1) rotate(0) translate(4 260.5)">
<polygon fill="white" stroke="none" points="-4,4 -4,-260.5 2582.43,-260.5 2582.43,4 -4,4"/>
<!-- Am -->
<g id="node1" class="node">
<title>Am</title>
<ellipse fill="none" stroke="black" cx="27" cy="-109" rx="27" ry="18"/>
<text text-anchor="middle" x="27" y="-103.95" font-family="Times,serif" font-size="14.00">Am</text>
</g>
<!-- Ap -->
<g id="node2" class="node">
<title>Ap</title>
<ellipse fill="none" stroke="black" cx="123.75" cy="-109" rx="27" ry="18"/>
<text text-anchor="middle" x="123.75" y="-103.95" font-family="Times,serif" font-size="14.00">Ap</text>
</g>
<!-- Am&#45;&gt;Ap -->
<g id="edge1" class="edge">
<title>Am&#45;&gt;Ap</title>
<path fill="none" stroke="red" d="M54.39,-104C63.94,-104 74.91,-104 85.23,-104"/>
<path fill="none" stroke="green" d="M54.39,-106C63.94,-106 74.91,-106 85.23,-106"/>
<path fill="none" stroke="blue" d="M54.39,-108C63.94,-108 74.91,-108 85.23,-108"/>
<path fill="none" stroke="orange" d="M54.39,-110C63.94,-110 74.91,-110 85.23,-110"/>
<path fill="none" stroke="purple" d="M54.39,-112C63.94,-112 74.91,-112 85.23,-112"/>
<path fill="none" stroke="brown" d="M54.39,-114C63.94,-114 74.91,-114 85.23,-114"/>
<polygon fill="red" stroke="red" points="84.98,-112.5 94.98,-109 84.98,-105.5 84.98,-112.5"/>
<text text-anchor="middle" x="75.38" y="-112.2" font-family="Times,serif" font-size="14.00">6</text>
</g>
<!-- Bm -->
<g id="node3" class="node">
<title>Bm</title>
<ellipse fill="none" stroke="black" cx="220.5" cy="-140" rx="27" ry="18"/>
<text text-anchor="middle" x="220.5" y="-134.95" font-family="Times,serif" font-size="14.00">Bm</text>
</g>
<!-- Ap&#45;&gt;Bm -->
<g id="edge2" class="edge">
<title>Ap&#45;&gt;Bm</title>
<path fill="none" stroke="red" d="M148.97,-115.87C159.97,-119.47 173.22,-123.81 185.28,-127.75"/>
<path fill="none" stroke="blue" d="M148.35,-117.77C159.35,-121.37 172.6,-125.71 184.65,-129.65"/>
<polygon fill="red" stroke="red" points="183.57,-131.93 194.16,-131.71 185.74,-125.27 183.57,-131.93"/>
<text text-anchor="middle" x="172.12" y="-128.63" font-family="Times,serif" font-size="14.00">2</text>
</g>
<!-- Cm -->
<g id="node4" class="node">
<title>Cm</title>
<ellipse fill="none" stroke="black" cx="220.5" cy="-195" rx="27" ry="18"/>
<text text-anchor="middle" x="220.5" y="-189.95" font-family="Times,serif" font-size="14.00">Cm</text>
</g>
<!-- Ap&#45;&gt;Cm -->
<g id="edge3" class="edge">
<title>Ap&#45;&gt;Cm</title>
<path fill="none" stroke="orange" d="M140.4,-123.2C155.26,-136.69 177.82,-157.17 195.06,-172.81"/>
<polygon fill="orange" stroke="orange" points="192.64,-175.34 202.39,-179.47 197.34,-170.16 192.64,-175.34"/>
<text text-anchor="middle" x="172.12" y="-157.78" font-family="Times,serif" font-size="14.00">1</text>
</g>
<!-- Xm -->
<g id="node5" class="node">
<title>Xm</title>
<ellipse fill="none" stroke="black" cx="220.5" cy="-21" rx="27" ry="18"/>
<text text-anchor="middle" x="220.5" y="-15.95" font-family="Times,serif" font-size="14.00">Xm</text>
</g>
<!-- Ap&#45;&gt;Xm -->
<g id="edge4" class="edge">
<title>Ap&#45;&gt;Xm</title>
<path fill="none" stroke="brown" d="M140.4,-94.47C155.48,-80.46 178.52,-59.07 195.84,-42.97"/>
<polygon fill="brown" stroke="brown" points="197.78,-45.95 202.72,-36.58 193.01,-40.82 197.78,-45.95"/>
<text text-anchor="middle" x="172.12" y="-70.84" font-family="Times,serif" font-size="14.00">1</text>
</g>
<!-- Nm -->
<g id="node6" class="node">
<title>Nm</title>
<ellipse fill="none" stroke="black" cx="220.5" cy="-86" rx="27" ry="18"/>
<text text-anchor="middle" x="220.5" y="-80.95" font-family="Times,serif" font-size="14.00">Nm</text>
</g>
<!-- Ap&#45;&gt;Nm -->
<g id="edge5" class="edge">
<title>Ap&#45;&gt;Nm</title>
<path fill="none" stroke="green" d="M149.13,-101.44C155.44,-99.8 162.21,-98.07 168.51,-96.53 173.21,-95.38 178.15,-94.22 183.04,-93.08"/>
<path fill="none" stroke="purple" d="M149.63,-103.38C155.93,-101.73 162.71,-100 168.99,-98.47 173.67,-97.33 178.61,-96.16 183.5,-95.03"/>
<polygon fill="green" stroke="green" points="183.98,-97.49 192.95,-91.85 182.42,-90.66 183.98,-97.49"/>
<text text-anchor="middle" x="172.12" y="-100.7" font-family="Times,serif" font-size="14.00">2</text>
</g>
<!-- Bp -->
<g id="node7" class="node">
<title>Bp</title>
<ellipse fill="none" stroke="black" cx="317.25" cy="-140" rx="27" ry="18"/>
<text text-anchor="middle" x="317.25" y="-134.95" font-family="Times,serif" font-size="14.00">Bp</text>
</g>
<!-- Bm&#45;&gt;Bp -->
<g id="edge6" class="edge">
<title>Bm&#45;&gt;Bp</title>
<path fill="none" stroke="red" d="M247.89,-139C257.44,-139 268.41,-139 278.73,-139"/>
<path fill="none" stroke="blue" d="M247.89,-141C257.44,-141 268.41,-141 278.73,-141"/>
<polygon fill="red" stroke="red" points="278.48,-143.5 288.48,-140 278.48,-136.5 278.48,-143.5"/>
<text text-anchor="middle" x="268.88" y="-143.2" font-family="Times,serif" font-size="14.00">2</text>
</g>
<!-- Cp -->
<g id="node9" class="node">
<title>Cp</title>
<ellipse fill="none" stroke="black" cx="317.25" cy="-197" rx="27" ry="18"/>
<text text-anchor="middle" x="317.25" y="-191.95" font-family="Times,serif" font-size="14.00">Cp</text>
</g>
<!-- Cm&#45;&gt;Cp -->
<g id="edge8" class="edge">
<title>Cm&#45;&gt;Cp</title>
<path fill="none" stroke="orange" d="M247.89,-195.56C257.44,-195.76 268.41,-195.99 278.73,-196.21"/>
<polygon fill="orange" stroke="orange" points="278.41,-199.7 288.49,-196.41 278.56,-192.7 278.41,-199.7"/>
<text text-anchor="middle" x="268.88" y="-199.26" font-family="Times,serif" font-size="14.00">1</text>
</g>
<!-- Xp -->
<g id="node11" class="node">
<title>Xp</title>
<ellipse fill="none" stroke="black" cx="389.25" cy="-18" rx="27" ry="18"/>
<text text-anchor="middle" x="389.25" y="-12.95" font-family="Times,serif" font-size="14.00">Xp</text>
</g>
<!-- Xm&#45;&gt;Xp -->
<g id="edge10" class="edge">
<title>Xm&#45;&gt;Xp</title>
<path fill="none" stroke="brown" d="M247.92,-20.52C275.61,-20.03 319.35,-19.24 350.63,-18.68"/>
<polygon fill="brown" stroke="brown" points="350.5,-22.18 360.44,-18.5 350.38,-15.18 350.5,-22.18"/>
<text text-anchor="middle" x="268.88" y="-23.38" font-family="Times,serif" font-size="14.00">1</text>
</g>
<!-- Np -->
<g id="node13" class="node">
<title>Np</title>
<ellipse fill="none" stroke="black" cx="317.25" cy="-86" rx="27" ry="18"/>
<text text-anchor="middle" x="317.25" y="-80.95" font-family="Times,serif" font-size="14.00">Np</text>
</g>
<!-- Nm&#45;&gt;Np -->
<g id="edge12" class="edge">
<title>Nm&#45;&gt;Np</title>
<path fill="none" stroke="green" d="M247.89,-85C257.44,-85 268.41,-85 278.73,-85"/>
<path fill="none" stroke="purple" d="M247.89,-87C257.44,-87 268.41,-87 278.73,-87"/>
<polygon fill="green" stroke="green" points="278.48,-89.5 288.48,-86 278.48,-82.5 278.48,-89.5"/>
<text text-anchor="middle" x="268.88" y="-89.2" font-family="Times,serif" font-size="14.00">2</text>
</g>
<!-- Dm -->
<g id="node8" class="node">
<title>Dm</title>
<ellipse fill="none" stroke="black" cx="461.25" cy="-140" rx="27" ry="18"/>
<text text-anchor="middle" x="461.25" y="-134.95" font-family="Times,serif" font-size="14.00">Dm</text>
</g>
<!-- Bp&#45;&gt;Dm -->
<g id="edge7" class="edge">
<title>Bp&#45;&gt;Dm</title>
<path fill="none" stroke="red" d="M344.63,-139C366.55,-139 398.01,-139 422.58,-139"/>
<path fill="none" stroke="blue" d="M344.63,-141C366.55,-141 398.01,-141 422.58,-141"/>
<polygon fill="red" stroke="red" points="422.5,-143.5 432.5,-140 422.5,-136.5 422.5,-143.5"/>
<text text-anchor="middle" x="389.25" y="-143.2" font-family="Times,serif" font-size="14.00">2</text>
</g>
<!-- Dp -->
<g id="node15" class="node">
<title>Dp</title>
<ellipse fill="none" stroke="black" cx="558" cy="-140" rx="27" ry="18"/>
<text text-anchor="middle" x="558" y="-134.95" font-family="Times,serif" font-size="14.00">Dp</text>
</g>
<!-- Dm&#45;&gt;Dp -->
<g id="edge14" class="edge">
<title>Dm&#45;&gt;Dp</title>
<path fill="none" stroke="red" d="M488.64,-139C498.19,-139 509.16,-139 519.48,-139"/>
<path fill="none" stroke="blue" d="M488.64,-141C498.19,-141 509.16,-141 519.48,-141"/>
<polygon fill="red" stroke="red" points="519.23,-143.5 529.23,-140 519.23,-136.5 519.23,-143.5"/>
<text text-anchor="middle" x="509.62" y="-143.2" font-family="Times,serif" font-size="14.00">2</text>
</g>
<!-- Ym -->
<g id="node10" class="node">
<title>Ym</title>
<ellipse fill="none" stroke="black" cx="461.25" cy="-201" rx="27" ry="18"/>
<text text-anchor="middle" x="461.25" y="-195.95" font-family="Times,serif" font-size="14.00">Ym</text>
</g>
<!-- Cp&#45;&gt;Ym -->
<g id="edge9" class="edge">
<title>Cp&#45;&gt;Ym</title>
<path fill="none" stroke="orange" d="M344.63,-197.74C366.55,-198.36 398.01,-199.25 422.58,-199.94"/>
<polygon fill="orange" stroke="orange" points="422.41,-203.44 432.5,-200.22 422.6,-196.44 422.41,-203.44"/>
<text text-anchor="middle" x="389.25" y="-202.91" font-family="Times,serif" font-size="14.00">1</text>
</g>
<!-- Yp -->
<g id="node17" class="node">
<title>Yp</title>
<ellipse fill="none" stroke="black" cx="630" cy="-207" rx="27" ry="18"/>
<text text-anchor="middle" x="630" y="-201.95" font-family="Times,serif" font-size="14.00">Yp</text>
</g>
<!-- Ym&#45;&gt;Yp -->
<g id="edge16" class="edge">
<title>Ym&#45;&gt;Yp</title>
<path fill="none" stroke="orange" d="M488.67,-201.95C516.36,-202.95 560.1,-204.52 591.38,-205.65"/>
<polygon fill="orange" stroke="orange" points="591.07,-209.14 601.19,-206 591.32,-202.14 591.07,-209.14"/>
<text text-anchor="middle" x="509.62" y="-205.95" font-family="Times,serif" font-size="14.00">1</text>
</g>
<!-- Rm -->
<g id="node12" class="node">
<title>Rm</title>
<ellipse fill="none" stroke="black" cx="895.5" cy="-32" rx="27" ry="18"/>
<text text-anchor="middle" x="895.5" y="-26.95" font-family="Times,serif" font-size="14.00">Rm</text>
</g>
<!-- Xp&#45;&gt;Rm -->
<g id="edge11" class="edge">
<title>Xp&#45;&gt;Rm</title>
<path fill="none" stroke="brown" d="M416.58,-17.65C440.57,-17.36 476.97,-17 508.62,-17 508.62,-17 508.62,-17 799.75,-17 819.33,-17 840.91,-20.16 858.52,-23.58"/>
<polygon fill="brown" stroke="brown" points="857.75,-27 868.25,-25.59 859.16,-20.14 857.75,-27"/>
<text text-anchor="middle" x="630" y="-20.2" font-family="Times,serif" font-size="14.00">1</text>
</g>
<!-- Rp -->
<g id="node47" class="node">
<title>Rp</title>
<ellipse fill="none" stroke="black" cx="992.25" cy="-32" rx="27" ry="18"/>
<text text-anchor="middle" x="992.25" y="-26.95" font-family="Times,serif" font-size="14.00">Rp</text>
</g>
<!-- Rm&#45;&gt;Rp -->
<g id="edge49" class="edge">
<title>Rm&#45;&gt;Rp</title>
<path fill="none" stroke="green" d="M922.89,-31C932.44,-31 943.41,-31 953.73,-31"/>
<path fill="none" stroke="brown" d="M922.89,-33C932.44,-33 943.41,-33 953.73,-33"/>
<polygon fill="green" stroke="green" points="953.48,-35.5 963.48,-32 953.48,-28.5 953.48,-35.5"/>
<text text-anchor="middle" x="943.88" y="-35.2" font-family="Times,serif" font-size="14.00">2</text>
</g>
<!-- Pm -->
<g id="node14" class="node">
<title>Pm</title>
<ellipse fill="none" stroke="black" cx="461.25" cy="-86" rx="27" ry="18"/>
<text text-anchor="middle" x="461.25" y="-80.95" font-family="Times,serif" font-size="14.00">Pm</text>
</g>
<!-- Np&#45;&gt;Pm -->
<g id="edge13" class="edge">
<title>Np&#45;&gt;Pm</title>
<path fill="none" stroke="green" d="M344.63,-85C366.55,-85 398.01,-85 422.58,-85"/>
<path fill="none" stroke="purple" d="M344.63,-87C366.55,-87 398.01,-87 422.58,-87"/>
<polygon fill="green" stroke="green" points="422.5,-89.5 432.5,-86 422.5,-82.5 422.5,-89.5"/>
<text text-anchor="middle" x="389.25" y="-89.2" font-family="Times,serif" font-size="14.00">2</text>
</g>
<!-- Pp -->
<g id="node41" class="node">
<title>Pp</title>
<ellipse fill="none" stroke="black" cx="558" cy="-86" rx="27" ry="18"/>
<text text-anchor="middle" x="558" y="-80.95" font-family="Times,serif" font-size="14.00">Pp</text>
</g>
<!-- Pm&#45;&gt;Pp -->
<g id="edge42" class="edge">
<title>Pm&#45;&gt;Pp</title>
<path fill="none" stroke="green" d="M488.64,-85C498.19,-85 509.16,-85 519.48,-85"/>
<path fill="none" stroke="purple" d="M488.64,-87C498.19,-87 509.16,-87 519.48,-87"/>
<polygon fill="green" stroke="green" points="519.23,-89.5 529.23,-86 519.23,-82.5 519.23,-89.5"/>
<text text-anchor="middle" x="509.62" y="-89.2" font-family="Times,serif" font-size="14.00">2</text>
</g>
<!-- Fm -->
<g id="node16" class="node">
<title>Fm</title>
<ellipse fill="none" stroke="black" cx="702" cy="-140" rx="27" ry="18"/>
<text text-anchor="middle" x="702" y="-134.95" font-family="Times,serif" font-size="14.00">Fm</text>
</g>
<!-- Dp&#45;&gt;Fm -->
<g id="edge15" class="edge">
<title>Dp&#45;&gt;Fm</title>
<path fill="none" stroke="red" d="M585.38,-139C607.3,-139 638.76,-139 663.33,-139"/>
<path fill="none" stroke="blue" d="M585.38,-141C607.3,-141 638.76,-141 663.33,-141"/>
<polygon fill="red" stroke="red" points="663.25,-143.5 673.25,-140 663.25,-136.5 663.25,-143.5"/>
<text text-anchor="middle" x="630" y="-143.2" font-family="Times,serif" font-size="14.00">2</text>
</g>
<!-- Fp -->
<g id="node19" class="node">
<title>Fp</title>
<ellipse fill="none" stroke="black" cx="798.75" cy="-140" rx="27" ry="18"/>
<text text-anchor="middle" x="798.75" y="-134.95" font-family="Times,serif" font-size="14.00">Fp</text>
</g>
<!-- Fm&#45;&gt;Fp -->
<g id="edge18" class="edge">
<title>Fm&#45;&gt;Fp</title>
<path fill="none" stroke="red" d="M729.39,-139C738.94,-139 749.91,-139 760.23,-139"/>
<path fill="none" stroke="blue" d="M729.39,-141C738.94,-141 749.91,-141 760.23,-141"/>
<polygon fill="red" stroke="red" points="759.98,-143.5 769.98,-140 759.98,-136.5 759.98,-143.5"/>
<text text-anchor="middle" x="750.38" y="-143.2" font-family="Times,serif" font-size="14.00">2</text>
</g>
<!-- Em -->
<g id="node18" class="node">
<title>Em</title>
<ellipse fill="none" stroke="black" cx="895.5" cy="-206" rx="27" ry="18"/>
<text text-anchor="middle" x="895.5" y="-200.95" font-family="Times,serif" font-size="14.00">Em</text>
</g>
<!-- Yp&#45;&gt;Em -->
<g id="edge17" class="edge">
<title>Yp&#45;&gt;Em</title>
<path fill="none" stroke="orange" d="M657.23,-206.9C704.19,-206.72 802.75,-206.35 856.9,-206.14"/>
<polygon fill="orange" stroke="orange" points="856.88,-209.64 866.86,-206.1 856.85,-202.64 856.88,-209.64"/>
<text text-anchor="middle" x="750.38" y="-209.75" font-family="Times,serif" font-size="14.00">1</text>
</g>
<!-- Ep -->
<g id="node21" class="node">
<title>Ep</title>
<ellipse fill="none" stroke="black" cx="992.25" cy="-206" rx="27" ry="18"/>
<text text-anchor="middle" x="992.25" y="-200.95" font-family="Times,serif" font-size="14.00">Ep</text>
</g>
<!-- Em&#45;&gt;Ep -->
<g id="edge21" class="edge">
<title>Em&#45;&gt;Ep</title>
<path fill="none" stroke="red" d="M922.89,-205C932.44,-205 943.41,-205 953.73,-205"/>
<path fill="none" stroke="orange" d="M922.89,-207C932.44,-207 943.41,-207 953.73,-207"/>
<polygon fill="red" stroke="red" points="953.48,-209.5 963.48,-206 953.48,-202.5 953.48,-209.5"/>
<text text-anchor="middle" x="943.88" y="-209.2" font-family="Times,serif" font-size="14.00">2</text>
</g>
<!-- Fp&#45;&gt;Em -->
<g id="edge19" class="edge">
<title>Fp&#45;&gt;Em</title>
<path fill="none" stroke="red" d="M818.02,-152.73C831.82,-162.34 851.01,-175.71 866.72,-186.65"/>
<polygon fill="red" stroke="red" points="864.52,-189.38 874.72,-192.22 868.52,-183.64 864.52,-189.38"/>
<text text-anchor="middle" x="847.12" y="-178.18" font-family="Times,serif" font-size="14.00">1</text>
</g>
<!-- Gm -->
<g id="node20" class="node">
<title>Gm</title>
<ellipse fill="none" stroke="black" cx="895.5" cy="-140" rx="27" ry="18"/>
<text text-anchor="middle" x="895.5" y="-134.95" font-family="Times,serif" font-size="14.00">Gm</text>
</g>
<!-- Fp&#45;&gt;Gm -->
<g id="edge20" class="edge">
<title>Fp&#45;&gt;Gm</title>
<path fill="none" stroke="blue" d="M825.8,-138.96C831.7,-138.77 837.94,-138.6 843.75,-138.5 847.96,-138.43 852.37,-138.44 856.76,-138.49"/>
<polygon fill="blue" stroke="blue" points="856.57,-141.99 866.65,-138.72 856.73,-134.99 856.57,-141.99"/>
<text text-anchor="middle" x="847.12" y="-141.7" font-family="Times,serif" font-size="14.00">1</text>
</g>
<!-- Gp -->
<g id="node28" class="node">
<title>Gp</title>
<ellipse fill="none" stroke="black" cx="992.25" cy="-140" rx="27" ry="18"/>
<text text-anchor="middle" x="992.25" y="-134.95" font-family="Times,serif" font-size="14.00">Gp</text>
</g>
<!-- Gm&#45;&gt;Gp -->
<g id="edge28" class="edge">
<title>Gm&#45;&gt;Gp</title>
<path fill="none" stroke="blue" d="M922.89,-140C932.44,-140 943.41,-140 953.73,-140"/>
<polygon fill="blue" stroke="blue" points="953.48,-143.5 963.48,-140 953.48,-136.5 953.48,-143.5"/>
<text text-anchor="middle" x="943.88" y="-143.2" font-family="Times,serif" font-size="14.00">1</text>
</g>
<!-- Hm -->
<g id="node22" class="node">
<title>Hm</title>
<ellipse fill="none" stroke="black" cx="1581.92" cy="-194" rx="27" ry="18"/>
<text text-anchor="middle" x="1581.92" y="-188.95" font-family="Times,serif" font-size="14.00">Hm</text>
</g>
<!-- Ep&#45;&gt;Hm -->
<g id="edge22" class="edge">
<title>Ep&#45;&gt;Hm</title>
<path fill="none" stroke="orange" d="M1013.39,-217.7C1032.24,-227.54 1061.51,-240 1088.81,-240 1088.81,-240 1088.81,-240 1438.92,-240 1478.9,-240 1522.27,-223.29 1550.42,-210.01"/>
<polygon fill="orange" stroke="orange" points="1551.61,-213.33 1559.07,-205.8 1548.54,-207.04 1551.61,-213.33"/>
<text text-anchor="middle" x="1259.37" y="-243.2" font-family="Times,serif" font-size="14.00">1</text>
</g>
<!-- Um -->
<g id="node23" class="node">
<title>Um</title>
<ellipse fill="none" stroke="black" cx="1089.81" cy="-194" rx="27" ry="18"/>
<text text-anchor="middle" x="1089.81" y="-188.95" font-family="Times,serif" font-size="14.00">Um</text>
</g>
<!-- Ep&#45;&gt;Um -->
<g id="edge23" class="edge">
<title>Ep&#45;&gt;Um</title>
<path fill="none" stroke="red" d="M1019.11,-202.75C1029.09,-201.5 1040.71,-200.04 1051.56,-198.68"/>
<polygon fill="red" stroke="red" points="1051.94,-202.16 1061.43,-197.44 1051.07,-195.21 1051.94,-202.16"/>
<text text-anchor="middle" x="1040.62" y="-203.56" font-family="Times,serif" font-size="14.00">1</text>
</g>
<!-- Hp -->
<g id="node24" class="node">
<title>Hp</title>
<ellipse fill="none" stroke="black" cx="1729.59" cy="-192" rx="27" ry="18"/>
<text text-anchor="middle" x="1729.59" y="-186.95" font-family="Times,serif" font-size="14.00">Hp</text>
</g>
<!-- Hm&#45;&gt;Hp -->
<g id="edge24" class="edge">
<title>Hm&#45;&gt;Hp</title>
<path fill="none" stroke="red" d="M1609.29,-192.64C1632.18,-192.32 1665.58,-191.86 1691.22,-191.51"/>
<path fill="none" stroke="orange" d="M1609.31,-194.64C1632.21,-194.32 1665.61,-193.86 1691.25,-193.51"/>
<polygon fill="red" stroke="red" points="1690.94,-196.02 1700.89,-192.38 1690.84,-189.02 1690.94,-196.02"/>
<text text-anchor="middle" x="1655.75" y="-196.55" font-family="Times,serif" font-size="14.00">2</text>
</g>
<!-- Up -->
<g id="node26" class="node">
<title>Up</title>
<ellipse fill="none" stroke="black" cx="1187.37" cy="-194" rx="27" ry="18"/>
<text text-anchor="middle" x="1187.37" y="-188.95" font-family="Times,serif" font-size="14.00">Up</text>
</g>
<!-- Um&#45;&gt;Up -->
<g id="edge26" class="edge">
<title>Um&#45;&gt;Up</title>
<path fill="none" stroke="red" d="M1117.17,-194C1126.89,-194 1138.09,-194 1148.61,-194"/>
<polygon fill="red" stroke="red" points="1148.57,-197.5 1158.57,-194 1148.57,-190.5 1148.57,-197.5"/>
<text text-anchor="middle" x="1138.99" y="-197.2" font-family="Times,serif" font-size="14.00">1</text>
</g>
<!-- Im -->
<g id="node25" class="node">
<title>Im</title>
<ellipse fill="none" stroke="black" cx="1826.34" cy="-148" rx="27" ry="18"/>
<text text-anchor="middle" x="1826.34" y="-142.95" font-family="Times,serif" font-size="14.00">Im</text>
</g>
<!-- Hp&#45;&gt;Im -->
<g id="edge25" class="edge">
<title>Hp&#45;&gt;Im</title>
<path fill="none" stroke="red" d="M1751.66,-181.11C1763.81,-175.47 1779.24,-168.3 1792.8,-162.01"/>
<path fill="none" stroke="orange" d="M1752.51,-182.92C1764.66,-177.28 1780.08,-170.12 1793.64,-163.82"/>
<polygon fill="red" stroke="red" points="1794.62,-166.12 1802.22,-158.73 1791.68,-159.77 1794.62,-166.12"/>
<text text-anchor="middle" x="1777.96" y="-174.52" font-family="Times,serif" font-size="14.00">2</text>
</g>
<!-- Ip -->
<g id="node32" class="node">
<title>Ip</title>
<ellipse fill="none" stroke="black" cx="1923.09" cy="-148" rx="27" ry="18"/>
<text text-anchor="middle" x="1923.09" y="-142.95" font-family="Times,serif" font-size="14.00">Ip</text>
</g>
<!-- Im&#45;&gt;Ip -->
<g id="edge32" class="edge">
<title>Im&#45;&gt;Ip</title>
<path fill="none" stroke="red" d="M1853.73,-146C1863.28,-146 1874.25,-146 1884.57,-146"/>
<path fill="none" stroke="blue" d="M1853.73,-148C1863.28,-148 1874.25,-148 1884.57,-148"/>
<path fill="none" stroke="orange" d="M1853.73,-150C1863.28,-150 1874.25,-150 1884.57,-150"/>
<polygon fill="red" stroke="red" points="1884.32,-151.5 1894.32,-148 1884.32,-144.5 1884.32,-151.5"/>
<text text-anchor="middle" x="1874.71" y="-151.2" font-family="Times,serif" font-size="14.00">3</text>
</g>
<!-- Vm -->
<g id="node27" class="node">
<title>Vm</title>
<ellipse fill="none" stroke="black" cx="1336.27" cy="-194" rx="27" ry="18"/>
<text text-anchor="middle" x="1336.27" y="-188.95" font-family="Times,serif" font-size="14.00">Vm</text>
</g>
<!-- Up&#45;&gt;Vm -->
<g id="edge27" class="edge">
<title>Up&#45;&gt;Vm</title>
<path fill="none" stroke="red" d="M1214.63,-194C1237.82,-194 1271.89,-194 1297.91,-194"/>
<polygon fill="red" stroke="red" points="1297.72,-197.5 1307.72,-194 1297.72,-190.5 1297.72,-197.5"/>
<text text-anchor="middle" x="1259.37" y="-197.2" font-family="Times,serif" font-size="14.00">1</text>
</g>
<!-- Vp -->
<g id="node53" class="node">
<title>Vp</title>
<ellipse fill="none" stroke="black" cx="1437.92" cy="-194" rx="27" ry="18"/>
<text text-anchor="middle" x="1437.92" y="-188.95" font-family="Times,serif" font-size="14.00">Vp</text>
</g>
<!-- Vm&#45;&gt;Vp -->
<g id="edge57" class="edge">
<title>Vm&#45;&gt;Vp</title>
<path fill="none" stroke="red" d="M1363.71,-194C1374.61,-194 1387.44,-194 1399.29,-194"/>
<polygon fill="red" stroke="red" points="1399.19,-197.5 1409.19,-194 1399.19,-190.5 1399.19,-197.5"/>
<text text-anchor="middle" x="1389.55" y="-197.2" font-family="Times,serif" font-size="14.00">1</text>
</g>
<!-- Sm -->
<g id="node29" class="node">
<title>Sm</title>
<ellipse fill="none" stroke="black" cx="1089.81" cy="-140" rx="27" ry="18"/>
<text text-anchor="middle" x="1089.81" y="-134.95" font-family="Times,serif" font-size="14.00">Sm</text>
</g>
<!-- Gp&#45;&gt;Sm -->
<g id="edge29" class="edge">
<title>Gp&#45;&gt;Sm</title>
<path fill="none" stroke="blue" d="M1019.61,-140C1029.33,-140 1040.53,-140 1051.05,-140"/>
<polygon fill="blue" stroke="blue" points="1051.02,-143.5 1061.02,-140 1051.02,-136.5 1051.02,-143.5"/>
<text text-anchor="middle" x="1040.62" y="-143.2" font-family="Times,serif" font-size="14.00">1</text>
</g>
<!-- Sp -->
<g id="node30" class="node">
<title>Sp</title>
<ellipse fill="none" stroke="black" cx="1187.37" cy="-140" rx="27" ry="18"/>
<text text-anchor="middle" x="1187.37" y="-134.95" font-family="Times,serif" font-size="14.00">Sp</text>
</g>
<!-- Sm&#45;&gt;Sp -->
<g id="edge30" class="edge">
<title>Sm&#45;&gt;Sp</title>
<path fill="none" stroke="blue" d="M1117.17,-140C1126.89,-140 1138.09,-140 1148.61,-140"/>
<polygon fill="blue" stroke="blue" points="1148.57,-143.5 1158.57,-140 1148.57,-136.5 1148.57,-143.5"/>
<text text-anchor="middle" x="1138.99" y="-143.2" font-family="Times,serif" font-size="14.00">1</text>
</g>
<!-- Tm -->
<g id="node31" class="node">
<title>Tm</title>
<ellipse fill="none" stroke="black" cx="1336.27" cy="-140" rx="27" ry="18"/>
<text text-anchor="middle" x="1336.27" y="-134.95" font-family="Times,serif" font-size="14.00">Tm</text>
</g>
<!-- Sp&#45;&gt;Tm -->
<g id="edge31" class="edge">
<title>Sp&#45;&gt;Tm</title>
<path fill="none" stroke="blue" d="M1214.63,-140C1237.82,-140 1271.89,-140 1297.91,-140"/>
<polygon fill="blue" stroke="blue" points="1297.72,-143.5 1307.72,-140 1297.72,-136.5 1297.72,-143.5"/>
<text text-anchor="middle" x="1259.37" y="-143.2" font-family="Times,serif" font-size="14.00">1</text>
</g>
<!-- Tp -->
<g id="node52" class="node">
<title>Tp</title>
<ellipse fill="none" stroke="black" cx="1509.92" cy="-140" rx="27" ry="18"/>
<text text-anchor="middle" x="1509.92" y="-134.95" font-family="Times,serif" font-size="14.00">Tp</text>
</g>
<!-- Tm&#45;&gt;Tp -->
<g id="edge55" class="edge">
<title>Tm&#45;&gt;Tp</title>
<path fill="none" stroke="blue" d="M1363.71,-140C1392.44,-140 1438.58,-140 1471.13,-140"/>
<polygon fill="blue" stroke="blue" points="1470.93,-143.5 1480.93,-140 1470.93,-136.5 1470.93,-143.5"/>
<text text-anchor="middle" x="1389.55" y="-143.2" font-family="Times,serif" font-size="14.00">1</text>
</g>
<!-- Km -->
<g id="node33" class="node">
<title>Km</title>
<ellipse fill="none" stroke="black" cx="2019.84" cy="-150" rx="27" ry="18"/>
<text text-anchor="middle" x="2019.84" y="-144.95" font-family="Times,serif" font-size="14.00">Km</text>
</g>
<!-- Ip&#45;&gt;Km -->
<g id="edge33" class="edge">
<title>Ip&#45;&gt;Km</title>
<path fill="none" stroke="blue" d="M1950.5,-147.56C1960.05,-147.76 1971.02,-147.99 1981.34,-148.21"/>
<path fill="none" stroke="orange" d="M1950.46,-149.56C1960.01,-149.76 1970.98,-149.99 1981.3,-150.21"/>
<polygon fill="blue" stroke="blue" points="1981,-152.7 1991.07,-149.41 1981.15,-145.7 1981,-152.7"/>
<text text-anchor="middle" x="1971.46" y="-152.26" font-family="Times,serif" font-size="14.00">2</text>
</g>
<!-- Jm -->
<g id="node34" class="node">
<title>Jm</title>
<ellipse fill="none" stroke="black" cx="2019.84" cy="-91" rx="27" ry="18"/>
<text text-anchor="middle" x="2019.84" y="-85.95" font-family="Times,serif" font-size="14.00">Jm</text>
</g>
<!-- Ip&#45;&gt;Jm -->
<g id="edge34" class="edge">
<title>Ip&#45;&gt;Jm</title>
<path fill="none" stroke="red" d="M1943.72,-136.19C1956.84,-128.29 1974.35,-117.76 1989.17,-108.85"/>
<polygon fill="red" stroke="red" points="1990.84,-111.93 1997.61,-103.77 1987.23,-105.93 1990.84,-111.93"/>
<text text-anchor="middle" x="1971.46" y="-124.41" font-family="Times,serif" font-size="14.00">1</text>
</g>
<!-- Kp -->
<g id="node35" class="node">
<title>Kp</title>
<ellipse fill="none" stroke="black" cx="2188.59" cy="-147" rx="27" ry="18"/>
<text text-anchor="middle" x="2188.59" y="-141.95" font-family="Times,serif" font-size="14.00">Kp</text>
</g>
<!-- Km&#45;&gt;Kp -->
<g id="edge35" class="edge">
<title>Km&#45;&gt;Kp</title>
<path fill="none" stroke="blue" d="M2047.24,-148.52C2074.93,-148.03 2118.66,-147.24 2149.95,-146.68"/>
<path fill="none" stroke="orange" d="M2047.28,-150.52C2074.96,-150.03 2118.7,-149.24 2149.98,-148.68"/>
<polygon fill="blue" stroke="blue" points="2149.84,-151.18 2159.77,-147.5 2149.71,-144.18 2149.84,-151.18"/>
<text text-anchor="middle" x="2068.21" y="-152.38" font-family="Times,serif" font-size="14.00">2</text>
</g>
<!-- Jp -->
<g id="node37" class="node">
<title>Jp</title>
<ellipse fill="none" stroke="black" cx="2116.59" cy="-97" rx="27" ry="18"/>
<text text-anchor="middle" x="2116.59" y="-91.95" font-family="Times,serif" font-size="14.00">Jp</text>
</g>
<!-- Jm&#45;&gt;Jp -->
<g id="edge37" class="edge">
<title>Jm&#45;&gt;Jp</title>
<path fill="none" stroke="red" d="M2047.17,-89.66C2056.72,-90.27 2067.72,-90.96 2078.08,-91.62"/>
<path fill="none" stroke="green" d="M2047.04,-91.66C2056.59,-92.26 2067.6,-92.96 2077.95,-93.62"/>
<path fill="none" stroke="purple" d="M2046.91,-93.65C2056.47,-94.26 2067.47,-94.96 2077.83,-95.61"/>
<path fill="none" stroke="brown" d="M2046.79,-95.65C2056.34,-96.25 2067.34,-96.95 2077.7,-97.61"/>
<polygon fill="red" stroke="red" points="2077.49,-98.09 2087.69,-95.23 2077.93,-91.11 2077.49,-98.09"/>
<text text-anchor="middle" x="2068.21" y="-97.38" font-family="Times,serif" font-size="14.00">4</text>
</g>
<!-- Mm -->
<g id="node36" class="node">
<title>Mm</title>
<ellipse fill="none" stroke="black" cx="2454.38" cy="-121" rx="27.3" ry="18"/>
<text text-anchor="middle" x="2454.38" y="-115.95" font-family="Times,serif" font-size="14.00">Mm</text>
</g>
<!-- Kp&#45;&gt;Mm -->
<g id="edge36" class="edge">
<title>Kp&#45;&gt;Mm</title>
<path fill="none" stroke="blue" d="M2215.67,-145.02C2256.91,-143.24 2339.57,-138.71 2408.95,-129.01 2411.55,-128.65 2414.25,-128.22 2416.95,-127.76"/>
<path fill="none" stroke="orange" d="M2215.76,-147.02C2257.02,-145.23 2339.68,-140.71 2409.22,-130.99 2411.86,-130.62 2414.57,-130.19 2417.29,-129.73"/>
<polygon fill="blue" stroke="blue" points="2417.5,-132.23 2426.69,-126.96 2416.22,-125.35 2417.5,-132.23"/>
<text text-anchor="middle" x="2308.96" y="-143.7" font-family="Times,serif" font-size="14.00">2</text>
</g>
<!-- Mp -->
<g id="node40" class="node">
<title>Mp</title>
<ellipse fill="none" stroke="black" cx="2551.43" cy="-121" rx="27" ry="18"/>
<text text-anchor="middle" x="2551.43" y="-115.95" font-family="Times,serif" font-size="14.00">Mp</text>
</g>
<!-- Mm&#45;&gt;Mp -->
<g id="edge41" class="edge">
<title>Mm&#45;&gt;Mp</title>
<path fill="none" stroke="red" d="M2482.11,-116C2491.69,-116 2502.66,-116 2512.98,-116"/>
<path fill="none" stroke="green" d="M2482.11,-118C2491.69,-118 2502.66,-118 2512.98,-118"/>
<path fill="none" stroke="blue" d="M2482.11,-120C2491.69,-120 2502.66,-120 2512.98,-120"/>
<path fill="none" stroke="orange" d="M2482.11,-122C2491.69,-122 2502.66,-122 2512.98,-122"/>
<path fill="none" stroke="purple" d="M2482.11,-124C2491.69,-124 2502.66,-124 2512.98,-124"/>
<path fill="none" stroke="brown" d="M2482.11,-126C2491.69,-126 2502.66,-126 2512.98,-126"/>
<polygon fill="red" stroke="red" points="2512.72,-124.5 2522.72,-121 2512.72,-117.5 2512.72,-124.5"/>
<text text-anchor="middle" x="2503.05" y="-124.2" font-family="Times,serif" font-size="14.00">6</text>
</g>
<!-- Lm -->
<g id="node38" class="node">
<title>Lm</title>
<ellipse fill="none" stroke="black" cx="2260.59" cy="-98" rx="27" ry="18"/>
<text text-anchor="middle" x="2260.59" y="-92.95" font-family="Times,serif" font-size="14.00">Lm</text>
</g>
<!-- Jp&#45;&gt;Lm -->
<g id="edge38" class="edge">
<title>Jp&#45;&gt;Lm</title>
<path fill="none" stroke="red" d="M2143.98,-94.19C2165.9,-94.34 2197.36,-94.56 2221.93,-94.73"/>
<path fill="none" stroke="green" d="M2143.97,-96.19C2165.89,-96.34 2197.35,-96.56 2221.92,-96.73"/>
<path fill="none" stroke="purple" d="M2143.95,-98.19C2165.87,-98.34 2197.33,-98.56 2221.91,-98.73"/>
<path fill="none" stroke="brown" d="M2143.94,-100.19C2165.86,-100.34 2197.32,-100.56 2221.89,-100.73"/>
<polygon fill="red" stroke="red" points="2221.81,-101.23 2231.84,-97.8 2221.86,-94.23 2221.81,-101.23"/>
<text text-anchor="middle" x="2188.59" y="-100.88" font-family="Times,serif" font-size="14.00">4</text>
</g>
<!-- Lp -->
<g id="node39" class="node">
<title>Lp</title>
<ellipse fill="none" stroke="black" cx="2357.34" cy="-98" rx="27" ry="18"/>
<text text-anchor="middle" x="2357.34" y="-92.95" font-family="Times,serif" font-size="14.00">Lp</text>
</g>
<!-- Lm&#45;&gt;Lp -->
<g id="edge39" class="edge">
<title>Lm&#45;&gt;Lp</title>
<path fill="none" stroke="red" d="M2287.98,-95C2297.53,-95 2308.5,-95 2318.82,-95"/>
<path fill="none" stroke="green" d="M2287.98,-97C2297.53,-97 2308.5,-97 2318.82,-97"/>
<path fill="none" stroke="purple" d="M2287.98,-99C2297.53,-99 2308.5,-99 2318.82,-99"/>
<path fill="none" stroke="brown" d="M2287.98,-101C2297.53,-101 2308.5,-101 2318.82,-101"/>
<polygon fill="red" stroke="red" points="2318.57,-101.5 2328.57,-98 2318.57,-94.5 2318.57,-101.5"/>
<text text-anchor="middle" x="2308.96" y="-101.2" font-family="Times,serif" font-size="14.00">4</text>
</g>
<!-- Lp&#45;&gt;Mm -->
<g id="edge40" class="edge">
<title>Lp&#45;&gt;Mm</title>
<path fill="none" stroke="red" d="M2384.01,-101.13C2394.41,-103.64 2406.68,-106.61 2418.02,-109.36"/>
<path fill="none" stroke="green" d="M2383.54,-103.07C2393.94,-105.59 2406.21,-108.56 2417.55,-111.3"/>
<path fill="none" stroke="purple" d="M2383.07,-105.01C2393.47,-107.53 2405.74,-110.5 2417.08,-113.24"/>
<path fill="none" stroke="brown" d="M2382.6,-106.96C2393,-109.47 2405.27,-112.44 2416.61,-115.19"/>
<polygon fill="red" stroke="red" points="2416.23,-115.61 2426.78,-114.56 2417.88,-108.81 2416.23,-115.61"/>
<text text-anchor="middle" x="2405.71" y="-113.39" font-family="Times,serif" font-size="14.00">4</text>
</g>
<!-- Om -->
<g id="node42" class="node">
<title>Om</title>
<ellipse fill="none" stroke="black" cx="702" cy="-86" rx="27" ry="18"/>
<text text-anchor="middle" x="702" y="-80.95" font-family="Times,serif" font-size="14.00">Om</text>
</g>
<!-- Pp&#45;&gt;Om -->
<g id="edge43" class="edge">
<title>Pp&#45;&gt;Om</title>
<path fill="none" stroke="green" d="M585.38,-85C607.3,-85 638.76,-85 663.33,-85"/>
<path fill="none" stroke="purple" d="M585.38,-87C607.3,-87 638.76,-87 663.33,-87"/>
<polygon fill="green" stroke="green" points="663.25,-89.5 673.25,-86 663.25,-82.5 663.25,-89.5"/>
<text text-anchor="middle" x="630" y="-89.2" font-family="Times,serif" font-size="14.00">2</text>
</g>
<!-- Op -->
<g id="node43" class="node">
<title>Op</title>
<ellipse fill="none" stroke="black" cx="798.75" cy="-86" rx="27" ry="18"/>
<text text-anchor="middle" x="798.75" y="-80.95" font-family="Times,serif" font-size="14.00">Op</text>
</g>
<!-- Om&#45;&gt;Op -->
<g id="edge44" class="edge">
<title>Om&#45;&gt;Op</title>
<path fill="none" stroke="green" d="M729.39,-85C738.94,-85 749.91,-85 760.23,-85"/>
<path fill="none" stroke="purple" d="M729.39,-87C738.94,-87 749.91,-87 760.23,-87"/>
<polygon fill="green" stroke="green" points="759.98,-89.5 769.98,-86 759.98,-82.5 759.98,-89.5"/>
<text text-anchor="middle" x="750.38" y="-89.2" font-family="Times,serif" font-size="14.00">2</text>
</g>
<!-- Op&#45;&gt;Rm -->
<g id="edge46" class="edge">
<title>Op&#45;&gt;Rm</title>
<path fill="none" stroke="green" d="M819.84,-74.55C832.82,-67.15 849.94,-57.4 864.51,-49.09"/>
<polygon fill="green" stroke="green" points="865.84,-52.36 872.79,-44.37 862.37,-46.28 865.84,-52.36"/>
<text text-anchor="middle" x="847.12" y="-63.82" font-family="Times,serif" font-size="14.00">1</text>
</g>
<!-- Qm -->
<g id="node44" class="node">
<title>Qm</title>
<ellipse fill="none" stroke="black" cx="895.5" cy="-86" rx="27" ry="18"/>
<text text-anchor="middle" x="895.5" y="-80.95" font-family="Times,serif" font-size="14.00">Qm</text>
</g>
<!-- Op&#45;&gt;Qm -->
<g id="edge45" class="edge">
<title>Op&#45;&gt;Qm</title>
<path fill="none" stroke="purple" d="M826.14,-86C835.69,-86 846.66,-86 856.98,-86"/>
<polygon fill="purple" stroke="purple" points="856.73,-89.5 866.73,-86 856.73,-82.5 856.73,-89.5"/>
<text text-anchor="middle" x="847.12" y="-89.2" font-family="Times,serif" font-size="14.00">1</text>
</g>
<!-- Qp -->
<g id="node45" class="node">
<title>Qp</title>
<ellipse fill="none" stroke="black" cx="992.25" cy="-86" rx="27" ry="18"/>
<text text-anchor="middle" x="992.25" y="-80.95" font-family="Times,serif" font-size="14.00">Qp</text>
</g>
<!-- Qm&#45;&gt;Qp -->
<g id="edge47" class="edge">
<title>Qm&#45;&gt;Qp</title>
<path fill="none" stroke="purple" d="M922.89,-86C932.44,-86 943.41,-86 953.73,-86"/>
<polygon fill="purple" stroke="purple" points="953.48,-89.5 963.48,-86 953.48,-82.5 953.48,-89.5"/>
<text text-anchor="middle" x="943.88" y="-89.2" font-family="Times,serif" font-size="14.00">1</text>
</g>
<!-- Zm -->
<g id="node46" class="node">
<title>Zm</title>
<ellipse fill="none" stroke="black" cx="1089.81" cy="-86" rx="27" ry="18"/>
<text text-anchor="middle" x="1089.81" y="-80.95" font-family="Times,serif" font-size="14.00">Zm</text>
</g>
<!-- Qp&#45;&gt;Zm -->
<g id="edge48" class="edge">
<title>Qp&#45;&gt;Zm</title>
<path fill="none" stroke="purple" d="M1019.61,-86C1029.33,-86 1040.53,-86 1051.05,-86"/>
<polygon fill="purple" stroke="purple" points="1051.02,-89.5 1061.02,-86 1051.02,-82.5 1051.02,-89.5"/>
<text text-anchor="middle" x="1040.62" y="-89.2" font-family="Times,serif" font-size="14.00">1</text>
</g>
<!-- Zp -->
<g id="node49" class="node">
<title>Zp</title>
<ellipse fill="none" stroke="black" cx="1259.37" cy="-82" rx="27" ry="18"/>
<text text-anchor="middle" x="1259.37" y="-76.95" font-family="Times,serif" font-size="14.00">Zp</text>
</g>
<!-- Zm&#45;&gt;Zp -->
<g id="edge51" class="edge">
<title>Zm&#45;&gt;Zp</title>
<path fill="none" stroke="purple" d="M1116.99,-85.38C1144.82,-84.71 1189.09,-83.65 1220.67,-82.9"/>
<polygon fill="purple" stroke="purple" points="1220.67,-86.4 1230.58,-82.66 1220.5,-79.4 1220.67,-86.4"/>
<text text-anchor="middle" x="1138.99" y="-88.11" font-family="Times,serif" font-size="14.00">1</text>
</g>
<!-- Wm -->
<g id="node48" class="node">
<title>Wm</title>
<ellipse fill="none" stroke="black" cx="1089.81" cy="-32" rx="27.81" ry="18"/>
<text text-anchor="middle" x="1089.81" y="-26.95" font-family="Times,serif" font-size="14.00">Wm</text>
</g>
<!-- Rp&#45;&gt;Wm -->
<g id="edge50" class="edge">
<title>Rp&#45;&gt;Wm</title>
<path fill="none" stroke="green" d="M1019.61,-31C1029.09,-31 1039.98,-31 1050.27,-31"/>
<path fill="none" stroke="brown" d="M1019.61,-33C1029.09,-33 1039.98,-33 1050.27,-33"/>
<polygon fill="green" stroke="green" points="1050.02,-35.5 1060.02,-32 1050.02,-28.5 1050.02,-35.5"/>
<text text-anchor="middle" x="1040.62" y="-35.2" font-family="Times,serif" font-size="14.00">2</text>
</g>
<!-- Wp -->
<g id="node50" class="node">
<title>Wp</title>
<ellipse fill="none" stroke="black" cx="1187.37" cy="-35" rx="27" ry="18"/>
<text text-anchor="middle" x="1187.37" y="-29.95" font-family="Times,serif" font-size="14.00">Wp</text>
</g>
<!-- Wm&#45;&gt;Wp -->
<g id="edge53" class="edge">
<title>Wm&#45;&gt;Wp</title>
<path fill="none" stroke="green" d="M1117.97,-31.85C1127.59,-32.15 1138.59,-32.5 1148.92,-32.82"/>
<path fill="none" stroke="brown" d="M1117.9,-33.85C1127.53,-34.15 1138.53,-34.5 1148.86,-34.82"/>
<polygon fill="green" stroke="green" points="1148.54,-37.31 1158.65,-34.13 1148.76,-30.32 1148.54,-37.31"/>
<text text-anchor="middle" x="1138.99" y="-36.79" font-family="Times,serif" font-size="14.00">2</text>
</g>
<!-- Zp&#45;&gt;Jm -->
<g id="edge52" class="edge">
<title>Zp&#45;&gt;Jm</title>
<path fill="none" stroke="purple" d="M1286.39,-82C1312.29,-82 1353.16,-82 1388.55,-82 1388.55,-82 1388.55,-82 1924.09,-82 1943.24,-82 1964.48,-83.85 1981.98,-85.87"/>
<polygon fill="purple" stroke="purple" points="1981.31,-89.31 1991.66,-87.05 1982.16,-82.36 1981.31,-89.31"/>
<text text-anchor="middle" x="1655.75" y="-85.2" font-family="Times,serif" font-size="14.00">1</text>
</g>
<!-- AAm -->
<g id="node51" class="node">
<title>AAm</title>
<ellipse fill="none" stroke="black" cx="1336.27" cy="-36" rx="31.9" ry="18"/>
<text text-anchor="middle" x="1336.27" y="-30.95" font-family="Times,serif" font-size="14.00">AAm</text>
</g>
<!-- Wp&#45;&gt;AAm -->
<g id="edge54" class="edge">
<title>Wp&#45;&gt;AAm</title>
<path fill="none" stroke="green" d="M1214.64,-34.18C1236.22,-34.33 1267.24,-34.54 1292.42,-34.71"/>
<path fill="none" stroke="brown" d="M1214.62,-36.18C1236.21,-36.33 1267.23,-36.54 1292.41,-36.71"/>
<polygon fill="green" stroke="green" points="1292.34,-39.21 1302.36,-35.78 1292.39,-32.21 1292.34,-39.21"/>
<text text-anchor="middle" x="1259.37" y="-38.85" font-family="Times,serif" font-size="14.00">2</text>
</g>
<!-- AAp -->
<g id="node54" class="node">
<title>AAp</title>
<ellipse fill="none" stroke="black" cx="1655.75" cy="-37" rx="28.83" ry="18"/>
<text text-anchor="middle" x="1655.75" y="-31.95" font-family="Times,serif" font-size="14.00">AAp</text>
</g>
<!-- AAm&#45;&gt;AAp -->
<g id="edge59" class="edge">
<title>AAm&#45;&gt;AAp</title>
<path fill="none" stroke="green" d="M1368.58,-35.1C1426.76,-35.28 1551.38,-35.67 1615.25,-35.88"/>
<path fill="none" stroke="brown" d="M1368.58,-37.1C1426.75,-37.28 1551.37,-37.67 1615.24,-37.88"/>
<polygon fill="green" stroke="green" points="1614.91,-40.37 1624.92,-36.91 1614.93,-33.37 1614.91,-40.37"/>
<text text-anchor="middle" x="1437.92" y="-39.59" font-family="Times,serif" font-size="14.00">2</text>
</g>
<!-- Tp&#45;&gt;Im -->
<g id="edge56" class="edge">
<title>Tp&#45;&gt;Im</title>
<path fill="none" stroke="blue" d="M1537.19,-140.67C1592.9,-142.09 1723.11,-145.4 1787.67,-147.04"/>
<polygon fill="blue" stroke="blue" points="1787.32,-150.53 1797.41,-147.29 1787.5,-143.54 1787.32,-150.53"/>
<text text-anchor="middle" x="1655.75" y="-147.53" font-family="Times,serif" font-size="14.00">1</text>
</g>
<!-- Vp&#45;&gt;Hm -->
<g id="edge58" class="edge">
<title>Vp&#45;&gt;Hm</title>
<path fill="none" stroke="red" d="M1465.3,-194C1487.22,-194 1518.68,-194 1543.25,-194"/>
<polygon fill="red" stroke="red" points="1543.17,-197.5 1553.17,-194 1543.17,-190.5 1543.17,-197.5"/>
<text text-anchor="middle" x="1509.92" y="-197.2" font-family="Times,serif" font-size="14.00">1</text>
</g>
<!-- AAp&#45;&gt;Jm -->
<g id="edge60" class="edge">
<title>AAp&#45;&gt;Jm</title>
<path fill="none" stroke="green" d="M1684.93,-36C1709.29,-36 1745.45,-36 1776.96,-36 1776.96,-36 1776.96,-36 1924.09,-36 1951.55,-36.16 1977.8,-52.82 1995.91,-67.71"/>
<path fill="none" stroke="brown" d="M1684.93,-38C1709.29,-38 1745.45,-38 1776.96,-38 1776.96,-38 1776.96,-38 1924.09,-38 1950.48,-37.84 1976.73,-54.51 1994.64,-69.25"/>
<polygon fill="green" stroke="green" points="1992.91,-71.06 2002.76,-74.97 1997.5,-65.77 1992.91,-71.06"/>
<text text-anchor="middle" x="1826.34" y="-40.2" font-family="Times,serif" font-size="14.00">2</text>
</g>
</g>
</svg>
