<?xml version="1.0" encoding="UTF-8" standalone="no"?>
<!DOCTYPE svg PUBLIC "-//W3C//DTD SVG 1.1//EN"
 "http://www.w3.org/Graphics/SVG/1.1/DTD/svg11.dtd">
<!-- Generated by graphviz version 12.2.1 (20241206.2353)
 -->
<!-- Pages: 1 -->
<svg width="1052pt" height="236pt"
 viewBox="0.00 0.00 1052.00 236.00" xmlns="http://www.w3.org/2000/svg" xmlns:xlink="http://www.w3.org/1999/xlink">
<g id="graph0" class="graph" transform="scale(1 1) rotate(0) translate(4 232)">
<polygon fill="white" stroke="none" points="-4,4 -4,-232 1048,-232 1048,4 -4,4"/>
<!-- A -->
<g id="node1" class="node">
<title>A</title>
<ellipse fill="none" stroke="black" cx="27" cy="-97" rx="27" ry="18"/>
<text text-anchor="middle" x="27" y="-91.95" font-family="Times,serif" font-size="14.00">A</text>
</g>
<!-- B -->
<g id="node2" class="node">
<title>B</title>
<ellipse fill="none" stroke="black" cx="117" cy="-174" rx="27" ry="18"/>
<text text-anchor="middle" x="117" y="-168.95" font-family="Times,serif" font-size="14.00">B</text>
</g>
<!-- A&#45;&gt;B -->
<g id="edge1" class="edge">
<title>A&#45;&gt;B</title>
<path fill="none" stroke="black" d="M44.14,-111.12C57.33,-122.66 76.19,-139.17 91.29,-152.38"/>
<polygon fill="black" stroke="black" points="88.69,-154.76 98.52,-158.71 93.3,-149.49 88.69,-154.76"/>
</g>
<!-- C -->
<g id="node3" class="node">
<title>C</title>
<ellipse fill="none" stroke="black" cx="117" cy="-120" rx="27" ry="18"/>
<text text-anchor="middle" x="117" y="-114.95" font-family="Times,serif" font-size="14.00">C</text>
</g>
<!-- A&#45;&gt;C -->
<g id="edge2" class="edge">
<title>A&#45;&gt;C</title>
<path fill="none" stroke="black" d="M52.51,-103.41C61.12,-105.66 70.97,-108.23 80.3,-110.67"/>
<polygon fill="black" stroke="black" points="79.29,-114.02 89.85,-113.17 81.06,-107.25 79.29,-114.02"/>
</g>
<!-- X -->
<g id="node4" class="node">
<title>X</title>
<ellipse fill="none" stroke="black" cx="297" cy="-74" rx="27" ry="18"/>
<text text-anchor="middle" x="297" y="-68.95" font-family="Times,serif" font-size="14.00">X</text>
</g>
<!-- A&#45;&gt;X -->
<g id="edge3" class="edge">
<title>A&#45;&gt;X</title>
<path fill="none" stroke="black" d="M54.18,-94.75C101.92,-90.66 203.23,-81.96 258.36,-77.23"/>
<polygon fill="black" stroke="black" points="258.54,-80.73 268.2,-76.39 257.94,-73.75 258.54,-80.73"/>
</g>
<!-- N -->
<g id="node5" class="node">
<title>N</title>
<ellipse fill="none" stroke="black" cx="117" cy="-26" rx="27" ry="18"/>
<text text-anchor="middle" x="117" y="-20.95" font-family="Times,serif" font-size="14.00">N</text>
</g>
<!-- A&#45;&gt;N -->
<g id="edge4" class="edge">
<title>A&#45;&gt;N</title>
<path fill="none" stroke="black" d="M44.97,-83.31C57.87,-72.9 75.84,-58.4 90.48,-46.59"/>
<polygon fill="black" stroke="black" points="92.32,-49.6 97.91,-40.6 87.93,-44.15 92.32,-49.6"/>
</g>
<!-- D -->
<g id="node6" class="node">
<title>D</title>
<ellipse fill="none" stroke="black" cx="207" cy="-174" rx="27" ry="18"/>
<text text-anchor="middle" x="207" y="-168.95" font-family="Times,serif" font-size="14.00">D</text>
</g>
<!-- B&#45;&gt;D -->
<g id="edge5" class="edge">
<title>B&#45;&gt;D</title>
<path fill="none" stroke="black" d="M144.4,-174C151.89,-174 160.18,-174 168.2,-174"/>
<polygon fill="black" stroke="black" points="168.1,-177.5 178.1,-174 168.1,-170.5 168.1,-177.5"/>
</g>
<!-- Y -->
<g id="node7" class="node">
<title>Y</title>
<ellipse fill="none" stroke="black" cx="207" cy="-120" rx="27" ry="18"/>
<text text-anchor="middle" x="207" y="-114.95" font-family="Times,serif" font-size="14.00">Y</text>
</g>
<!-- C&#45;&gt;Y -->
<g id="edge6" class="edge">
<title>C&#45;&gt;Y</title>
<path fill="none" stroke="black" d="M144.4,-120C151.89,-120 160.18,-120 168.2,-120"/>
<polygon fill="black" stroke="black" points="168.1,-123.5 178.1,-120 168.1,-116.5 168.1,-123.5"/>
</g>
<!-- R -->
<g id="node22" class="node">
<title>R</title>
<ellipse fill="none" stroke="black" cx="387" cy="-72" rx="27" ry="18"/>
<text text-anchor="middle" x="387" y="-66.95" font-family="Times,serif" font-size="14.00">R</text>
</g>
<!-- X&#45;&gt;R -->
<g id="edge30" class="edge">
<title>X&#45;&gt;R</title>
<path fill="none" stroke="black" d="M324.4,-73.4C331.89,-73.23 340.18,-73.04 348.2,-72.86"/>
<polygon fill="black" stroke="black" points="348.18,-76.36 358.1,-72.63 348.03,-69.36 348.18,-76.36"/>
</g>
<!-- P -->
<g id="node19" class="node">
<title>P</title>
<ellipse fill="none" stroke="black" cx="207" cy="-22" rx="27" ry="18"/>
<text text-anchor="middle" x="207" y="-16.95" font-family="Times,serif" font-size="14.00">P</text>
</g>
<!-- N&#45;&gt;P -->
<g id="edge19" class="edge">
<title>N&#45;&gt;P</title>
<path fill="none" stroke="black" d="M144.4,-24.8C151.89,-24.46 160.18,-24.08 168.2,-23.72"/>
<polygon fill="black" stroke="black" points="168.27,-27.22 178.1,-23.27 167.96,-20.23 168.27,-27.22"/>
</g>
<!-- F -->
<g id="node8" class="node">
<title>F</title>
<ellipse fill="none" stroke="black" cx="297" cy="-174" rx="27" ry="18"/>
<text text-anchor="middle" x="297" y="-168.95" font-family="Times,serif" font-size="14.00">F</text>
</g>
<!-- D&#45;&gt;F -->
<g id="edge7" class="edge">
<title>D&#45;&gt;F</title>
<path fill="none" stroke="black" d="M234.4,-174C241.89,-174 250.18,-174 258.2,-174"/>
<polygon fill="black" stroke="black" points="258.1,-177.5 268.1,-174 258.1,-170.5 258.1,-177.5"/>
</g>
<!-- E -->
<g id="node9" class="node">
<title>E</title>
<ellipse fill="none" stroke="black" cx="387" cy="-129" rx="27" ry="18"/>
<text text-anchor="middle" x="387" y="-123.95" font-family="Times,serif" font-size="14.00">E</text>
</g>
<!-- Y&#45;&gt;E -->
<g id="edge31" class="edge">
<title>Y&#45;&gt;E</title>
<path fill="none" stroke="black" d="M234.26,-121.33C264.37,-122.85 313.96,-125.36 348.21,-127.09"/>
<polygon fill="black" stroke="black" points="347.95,-130.58 358.12,-127.59 348.31,-123.59 347.95,-130.58"/>
</g>
<!-- F&#45;&gt;E -->
<g id="edge10" class="edge">
<title>F&#45;&gt;E</title>
<path fill="none" stroke="black" d="M318.85,-163.34C329.63,-157.83 342.98,-151 354.94,-144.88"/>
<polygon fill="black" stroke="black" points="356.33,-148.1 363.64,-140.43 353.15,-141.87 356.33,-148.1"/>
</g>
<!-- G -->
<g id="node12" class="node">
<title>G</title>
<ellipse fill="none" stroke="black" cx="387" cy="-196" rx="27" ry="18"/>
<text text-anchor="middle" x="387" y="-190.95" font-family="Times,serif" font-size="14.00">G</text>
</g>
<!-- F&#45;&gt;G -->
<g id="edge11" class="edge">
<title>F&#45;&gt;G</title>
<path fill="none" stroke="black" d="M322.51,-180.13C331.12,-182.28 340.97,-184.74 350.3,-187.08"/>
<polygon fill="black" stroke="black" points="349.29,-190.43 359.84,-189.46 350.99,-183.64 349.29,-190.43"/>
</g>
<!-- H -->
<g id="node10" class="node">
<title>H</title>
<ellipse fill="none" stroke="black" cx="657" cy="-118" rx="27" ry="18"/>
<text text-anchor="middle" x="657" y="-112.95" font-family="Times,serif" font-size="14.00">H</text>
</g>
<!-- E&#45;&gt;H -->
<g id="edge8" class="edge">
<title>E&#45;&gt;H</title>
<path fill="none" stroke="black" d="M411.87,-136.66C423.28,-139.94 437.21,-143.38 450,-145 513.49,-153.06 531.34,-158.05 594,-145 604.52,-142.81 615.45,-138.73 625.14,-134.4"/>
<polygon fill="black" stroke="black" points="626.58,-137.59 634.11,-130.13 623.58,-131.27 626.58,-137.59"/>
</g>
<!-- U -->
<g id="node11" class="node">
<title>U</title>
<ellipse fill="none" stroke="black" cx="477" cy="-118" rx="27" ry="18"/>
<text text-anchor="middle" x="477" y="-112.95" font-family="Times,serif" font-size="14.00">U</text>
</g>
<!-- E&#45;&gt;U -->
<g id="edge9" class="edge">
<title>E&#45;&gt;U</title>
<path fill="none" stroke="black" d="M413.93,-125.76C421.65,-124.79 430.26,-123.72 438.56,-122.68"/>
<polygon fill="black" stroke="black" points="438.96,-126.16 448.45,-121.44 438.1,-119.21 438.96,-126.16"/>
</g>
<!-- I -->
<g id="node14" class="node">
<title>I</title>
<ellipse fill="none" stroke="black" cx="747" cy="-118" rx="27" ry="18"/>
<text text-anchor="middle" x="747" y="-112.95" font-family="Times,serif" font-size="14.00">I</text>
</g>
<!-- H&#45;&gt;I -->
<g id="edge13" class="edge">
<title>H&#45;&gt;I</title>
<path fill="none" stroke="black" d="M684.4,-118C691.89,-118 700.18,-118 708.2,-118"/>
<polygon fill="black" stroke="black" points="708.1,-121.5 718.1,-118 708.1,-114.5 708.1,-121.5"/>
</g>
<!-- V -->
<g id="node26" class="node">
<title>V</title>
<ellipse fill="none" stroke="black" cx="567" cy="-118" rx="27" ry="18"/>
<text text-anchor="middle" x="567" y="-112.95" font-family="Times,serif" font-size="14.00">V</text>
</g>
<!-- U&#45;&gt;V -->
<g id="edge27" class="edge">
<title>U&#45;&gt;V</title>
<path fill="none" stroke="black" d="M504.4,-118C511.89,-118 520.18,-118 528.2,-118"/>
<polygon fill="black" stroke="black" points="528.1,-121.5 538.1,-118 528.1,-114.5 528.1,-121.5"/>
</g>
<!-- S -->
<g id="node13" class="node">
<title>S</title>
<ellipse fill="none" stroke="black" cx="477" cy="-210" rx="27" ry="18"/>
<text text-anchor="middle" x="477" y="-204.95" font-family="Times,serif" font-size="14.00">S</text>
</g>
<!-- G&#45;&gt;S -->
<g id="edge12" class="edge">
<title>G&#45;&gt;S</title>
<path fill="none" stroke="black" d="M413.45,-200.05C421.41,-201.32 430.36,-202.74 438.94,-204.1"/>
<polygon fill="black" stroke="black" points="438.38,-207.56 448.8,-205.67 439.48,-200.65 438.38,-207.56"/>
</g>
<!-- T -->
<g id="node25" class="node">
<title>T</title>
<ellipse fill="none" stroke="black" cx="567" cy="-210" rx="27" ry="18"/>
<text text-anchor="middle" x="567" y="-204.95" font-family="Times,serif" font-size="14.00">T</text>
</g>
<!-- S&#45;&gt;T -->
<g id="edge25" class="edge">
<title>S&#45;&gt;T</title>
<path fill="none" stroke="black" d="M504.4,-210C511.89,-210 520.18,-210 528.2,-210"/>
<polygon fill="black" stroke="black" points="528.1,-213.5 538.1,-210 528.1,-206.5 528.1,-213.5"/>
</g>
<!-- K -->
<g id="node15" class="node">
<title>K</title>
<ellipse fill="none" stroke="black" cx="927" cy="-118" rx="27" ry="18"/>
<text text-anchor="middle" x="927" y="-112.95" font-family="Times,serif" font-size="14.00">K</text>
</g>
<!-- I&#45;&gt;K -->
<g id="edge14" class="edge">
<title>I&#45;&gt;K</title>
<path fill="none" stroke="black" d="M774.26,-118C804.37,-118 853.96,-118 888.21,-118"/>
<polygon fill="black" stroke="black" points="888.11,-121.5 898.11,-118 888.11,-114.5 888.11,-121.5"/>
</g>
<!-- J -->
<g id="node16" class="node">
<title>J</title>
<ellipse fill="none" stroke="black" cx="837" cy="-64" rx="27" ry="18"/>
<text text-anchor="middle" x="837" y="-58.95" font-family="Times,serif" font-size="14.00">J</text>
</g>
<!-- I&#45;&gt;J -->
<g id="edge15" class="edge">
<title>I&#45;&gt;J</title>
<path fill="none" stroke="black" d="M767.53,-106.02C779.15,-98.88 794.11,-89.7 807.08,-81.75"/>
<polygon fill="black" stroke="black" points="808.54,-84.96 815.23,-76.74 804.88,-78.99 808.54,-84.96"/>
</g>
<!-- M -->
<g id="node18" class="node">
<title>M</title>
<ellipse fill="none" stroke="black" cx="1017" cy="-91" rx="27" ry="18"/>
<text text-anchor="middle" x="1017" y="-85.95" font-family="Times,serif" font-size="14.00">M</text>
</g>
<!-- K&#45;&gt;M -->
<g id="edge17" class="edge">
<title>K&#45;&gt;M</title>
<path fill="none" stroke="black" d="M952.05,-110.62C960.97,-107.88 971.29,-104.72 980.99,-101.74"/>
<polygon fill="black" stroke="black" points="982,-105.09 990.54,-98.81 979.95,-98.4 982,-105.09"/>
</g>
<!-- L -->
<g id="node17" class="node">
<title>L</title>
<ellipse fill="none" stroke="black" cx="927" cy="-64" rx="27" ry="18"/>
<text text-anchor="middle" x="927" y="-58.95" font-family="Times,serif" font-size="14.00">L</text>
</g>
<!-- J&#45;&gt;L -->
<g id="edge16" class="edge">
<title>J&#45;&gt;L</title>
<path fill="none" stroke="black" d="M864.4,-64C871.89,-64 880.18,-64 888.2,-64"/>
<polygon fill="black" stroke="black" points="888.1,-67.5 898.1,-64 888.1,-60.5 888.1,-67.5"/>
</g>
<!-- L&#45;&gt;M -->
<g id="edge18" class="edge">
<title>L&#45;&gt;M</title>
<path fill="none" stroke="black" d="M952.05,-71.38C960.97,-74.12 971.29,-77.28 980.99,-80.26"/>
<polygon fill="black" stroke="black" points="979.95,-83.6 990.54,-83.19 982,-76.91 979.95,-83.6"/>
</g>
<!-- O -->
<g id="node20" class="node">
<title>O</title>
<ellipse fill="none" stroke="black" cx="297" cy="-20" rx="27" ry="18"/>
<text text-anchor="middle" x="297" y="-14.95" font-family="Times,serif" font-size="14.00">O</text>
</g>
<!-- P&#45;&gt;O -->
<g id="edge22" class="edge">
<title>P&#45;&gt;O</title>
<path fill="none" stroke="black" d="M234.4,-21.4C241.89,-21.23 250.18,-21.04 258.2,-20.86"/>
<polygon fill="black" stroke="black" points="258.18,-24.36 268.1,-20.63 258.03,-17.36 258.18,-24.36"/>
</g>
<!-- Q -->
<g id="node21" class="node">
<title>Q</title>
<ellipse fill="none" stroke="black" cx="387" cy="-18" rx="27" ry="18"/>
<text text-anchor="middle" x="387" y="-12.95" font-family="Times,serif" font-size="14.00">Q</text>
</g>
<!-- O&#45;&gt;Q -->
<g id="edge20" class="edge">
<title>O&#45;&gt;Q</title>
<path fill="none" stroke="black" d="M324.4,-19.4C331.89,-19.23 340.18,-19.04 348.2,-18.86"/>
<polygon fill="black" stroke="black" points="348.18,-22.36 358.1,-18.63 348.03,-15.36 348.18,-22.36"/>
</g>
<!-- O&#45;&gt;R -->
<g id="edge21" class="edge">
<title>O&#45;&gt;R</title>
<path fill="none" stroke="black" d="M317.97,-31.8C329.33,-38.51 343.78,-47.05 356.44,-54.53"/>
<polygon fill="black" stroke="black" points="354.42,-57.4 364.81,-59.48 357.98,-51.38 354.42,-57.4"/>
</g>
<!-- Z -->
<g id="node23" class="node">
<title>Z</title>
<ellipse fill="none" stroke="black" cx="657" cy="-18" rx="27" ry="18"/>
<text text-anchor="middle" x="657" y="-12.95" font-family="Times,serif" font-size="14.00">Z</text>
</g>
<!-- Q&#45;&gt;Z -->
<g id="edge23" class="edge">
<title>Q&#45;&gt;Z</title>
<path fill="none" stroke="black" d="M414.18,-18C461.92,-18 563.23,-18 618.36,-18"/>
<polygon fill="black" stroke="black" points="618.2,-21.5 628.2,-18 618.2,-14.5 618.2,-21.5"/>
</g>
<!-- W -->
<g id="node24" class="node">
<title>W</title>
<ellipse fill="none" stroke="black" cx="477" cy="-64" rx="27" ry="18"/>
<text text-anchor="middle" x="477" y="-58.95" font-family="Times,serif" font-size="14.00">W</text>
</g>
<!-- R&#45;&gt;W -->
<g id="edge24" class="edge">
<title>R&#45;&gt;W</title>
<path fill="none" stroke="black" d="M413.93,-69.64C421.65,-68.94 430.26,-68.16 438.56,-67.4"/>
<polygon fill="black" stroke="black" points="438.8,-70.9 448.45,-66.5 438.17,-63.92 438.8,-70.9"/>
</g>
<!-- Z&#45;&gt;J -->
<g id="edge32" class="edge">
<title>Z&#45;&gt;J</title>
<path fill="none" stroke="black" d="M684.21,-20.42C708,-23.05 743.85,-28.12 774,-37 784.23,-40.01 795,-44.29 804.65,-48.55"/>
<polygon fill="black" stroke="black" points="803.04,-51.66 813.59,-52.65 805.96,-45.3 803.04,-51.66"/>
</g>
<!-- AA -->
<g id="node27" class="node">
<title>AA</title>
<ellipse fill="none" stroke="black" cx="747" cy="-64" rx="27" ry="18"/>
<text text-anchor="middle" x="747" y="-58.95" font-family="Times,serif" font-size="14.00">AA</text>
</g>
<!-- W&#45;&gt;AA -->
<g id="edge29" class="edge">
<title>W&#45;&gt;AA</title>
<path fill="none" stroke="black" d="M504.18,-64C551.92,-64 653.23,-64 708.36,-64"/>
<polygon fill="black" stroke="black" points="708.2,-67.5 718.2,-64 708.2,-60.5 708.2,-67.5"/>
</g>
<!-- T&#45;&gt;I -->
<g id="edge26" class="edge">
<title>T&#45;&gt;I</title>
<path fill="none" stroke="black" d="M589.12,-199.09C620.3,-182.97 678.84,-152.71 714.93,-134.06"/>
<polygon fill="black" stroke="black" points="716.29,-137.3 723.56,-129.6 713.07,-131.08 716.29,-137.3"/>
</g>
<!-- V&#45;&gt;H -->
<g id="edge28" class="edge">
<title>V&#45;&gt;H</title>
<path fill="none" stroke="black" d="M594.4,-118C601.89,-118 610.18,-118 618.2,-118"/>
<polygon fill="black" stroke="black" points="618.1,-121.5 628.1,-118 618.1,-114.5 618.1,-121.5"/>
</g>
<!-- AA&#45;&gt;J -->
<g id="edge33" class="edge">
<title>AA&#45;&gt;J</title>
<path fill="none" stroke="black" d="M774.4,-64C781.89,-64 790.18,-64 798.2,-64"/>
<polygon fill="black" stroke="black" points="798.1,-67.5 808.1,-64 798.1,-60.5 798.1,-67.5"/>
</g>
</g>
</svg>
