<?xml version="1.0" encoding="UTF-8" standalone="no"?>
<!DOCTYPE svg PUBLIC "-//W3C//DTD SVG 1.1//EN"
 "http://www.w3.org/Graphics/SVG/1.1/DTD/svg11.dtd">
<!-- Generated by graphviz version 12.2.1 (20241206.2353)
 -->
<!-- Pages: 1 -->
<svg width="1052pt" height="175pt"
 viewBox="0.00 0.00 1052.00 175.00" xmlns="http://www.w3.org/2000/svg" xmlns:xlink="http://www.w3.org/1999/xlink">
<g id="graph0" class="graph" transform="scale(1 1) rotate(0) translate(4 171)">
<polygon fill="white" stroke="none" points="-4,4 -4,-171 1048,-171 1048,4 -4,4"/>
<!-- A -->
<g id="node1" class="node">
<title>A</title>
<ellipse fill="none" stroke="black" cx="27" cy="-81" rx="27" ry="18"/>
<text text-anchor="middle" x="27" y="-75.95" font-family="Times,serif" font-size="14.00">A</text>
</g>
<!-- B -->
<g id="node2" class="node">
<title>B</title>
<ellipse fill="none" stroke="black" cx="117" cy="-135" rx="27" ry="18"/>
<text text-anchor="middle" x="117" y="-129.95" font-family="Times,serif" font-size="14.00">B</text>
</g>
<!-- A&#45;&gt;B -->
<g id="edge1" class="edge">
<title>A&#45;&gt;B</title>
<path fill="none" stroke="black" d="M47.53,-92.98C59.15,-100.12 74.11,-109.3 87.08,-117.25"/>
<polygon fill="black" stroke="black" points="84.88,-120.01 95.23,-122.26 88.54,-114.04 84.88,-120.01"/>
</g>
<!-- C -->
<g id="node3" class="node">
<title>C</title>
<ellipse fill="none" stroke="black" cx="117" cy="-81" rx="27" ry="18"/>
<text text-anchor="middle" x="117" y="-75.95" font-family="Times,serif" font-size="14.00">C</text>
</g>
<!-- A&#45;&gt;C -->
<g id="edge2" class="edge">
<title>A&#45;&gt;C</title>
<path fill="none" stroke="black" d="M54.4,-81C61.89,-81 70.18,-81 78.2,-81"/>
<polygon fill="black" stroke="black" points="78.1,-84.5 88.1,-81 78.1,-77.5 78.1,-84.5"/>
</g>
<!-- X -->
<g id="node4" class="node">
<title>X</title>
<ellipse fill="none" stroke="black" cx="297" cy="-18" rx="27" ry="18"/>
<text text-anchor="middle" x="297" y="-12.95" font-family="Times,serif" font-size="14.00">X</text>
</g>
<!-- A&#45;&gt;X -->
<g id="edge3" class="edge">
<title>A&#45;&gt;X</title>
<path fill="none" stroke="black" d="M49.33,-70.21C61.08,-64.65 76.06,-58.19 90,-54 147.56,-36.71 216.82,-26.72 258.58,-21.83"/>
<polygon fill="black" stroke="black" points="258.8,-25.33 268.35,-20.72 258.02,-18.37 258.8,-25.33"/>
</g>
<!-- D -->
<g id="node8" class="node">
<title>D</title>
<ellipse fill="none" stroke="black" cx="207" cy="-135" rx="27" ry="18"/>
<text text-anchor="middle" x="207" y="-129.95" font-family="Times,serif" font-size="14.00">D</text>
</g>
<!-- B&#45;&gt;D -->
<g id="edge6" class="edge">
<title>B&#45;&gt;D</title>
<path fill="none" stroke="black" d="M144.4,-135C151.89,-135 160.18,-135 168.2,-135"/>
<polygon fill="black" stroke="black" points="168.1,-138.5 178.1,-135 168.1,-131.5 168.1,-138.5"/>
</g>
<!-- Y -->
<g id="node6" class="node">
<title>Y</title>
<ellipse fill="none" stroke="black" cx="207" cy="-81" rx="27" ry="18"/>
<text text-anchor="middle" x="207" y="-75.95" font-family="Times,serif" font-size="14.00">Y</text>
</g>
<!-- C&#45;&gt;Y -->
<g id="edge7" class="edge">
<title>C&#45;&gt;Y</title>
<path fill="none" stroke="black" d="M144.4,-81C151.89,-81 160.18,-81 168.2,-81"/>
<polygon fill="black" stroke="black" points="168.1,-84.5 178.1,-81 168.1,-77.5 168.1,-84.5"/>
</g>
<!-- J -->
<g id="node5" class="node">
<title>J</title>
<ellipse fill="none" stroke="black" cx="837" cy="-22" rx="27" ry="18"/>
<text text-anchor="middle" x="837" y="-16.95" font-family="Times,serif" font-size="14.00">J</text>
</g>
<!-- X&#45;&gt;J -->
<g id="edge4" class="edge">
<title>X&#45;&gt;J</title>
<path fill="none" stroke="black" d="M324.23,-16.32C358.93,-14.25 422.03,-11 476,-11 476,-11 476,-11 658,-11 706.54,-11 762.39,-15.13 798.38,-18.32"/>
<polygon fill="black" stroke="black" points="798.01,-21.8 808.29,-19.23 798.64,-14.83 798.01,-21.8"/>
</g>
<!-- L -->
<g id="node18" class="node">
<title>L</title>
<ellipse fill="none" stroke="black" cx="927" cy="-22" rx="27" ry="18"/>
<text text-anchor="middle" x="927" y="-16.95" font-family="Times,serif" font-size="14.00">L</text>
</g>
<!-- J&#45;&gt;L -->
<g id="edge21" class="edge">
<title>J&#45;&gt;L</title>
<path fill="none" stroke="black" d="M864.4,-22C871.89,-22 880.18,-22 888.2,-22"/>
<polygon fill="black" stroke="black" points="888.1,-25.5 898.1,-22 888.1,-18.5 888.1,-25.5"/>
</g>
<!-- E -->
<g id="node7" class="node">
<title>E</title>
<ellipse fill="none" stroke="black" cx="387" cy="-89" rx="27" ry="18"/>
<text text-anchor="middle" x="387" y="-83.95" font-family="Times,serif" font-size="14.00">E</text>
</g>
<!-- Y&#45;&gt;E -->
<g id="edge5" class="edge">
<title>Y&#45;&gt;E</title>
<path fill="none" stroke="black" d="M234.26,-82.18C264.37,-83.53 313.96,-85.76 348.21,-87.3"/>
<polygon fill="black" stroke="black" points="347.97,-90.79 358.12,-87.75 348.28,-83.8 347.97,-90.79"/>
</g>
<!-- H -->
<g id="node10" class="node">
<title>H</title>
<ellipse fill="none" stroke="black" cx="657" cy="-76" rx="27" ry="18"/>
<text text-anchor="middle" x="657" y="-70.95" font-family="Times,serif" font-size="14.00">H</text>
</g>
<!-- E&#45;&gt;H -->
<g id="edge9" class="edge">
<title>E&#45;&gt;H</title>
<path fill="none" stroke="black" d="M410.22,-79.5C421.84,-75.05 436.43,-70.24 450,-68 508.62,-58.34 577.84,-64.57 619.26,-70.15"/>
<polygon fill="black" stroke="black" points="618.53,-73.58 628.93,-71.51 619.51,-66.65 618.53,-73.58"/>
</g>
<!-- U -->
<g id="node11" class="node">
<title>U</title>
<ellipse fill="none" stroke="black" cx="477" cy="-95" rx="27" ry="18"/>
<text text-anchor="middle" x="477" y="-89.95" font-family="Times,serif" font-size="14.00">U</text>
</g>
<!-- E&#45;&gt;U -->
<g id="edge11" class="edge">
<title>E&#45;&gt;U</title>
<path fill="none" stroke="black" d="M413.93,-90.77C421.58,-91.29 430.11,-91.87 438.34,-92.43"/>
<polygon fill="black" stroke="black" points="437.92,-95.91 448.14,-93.1 438.4,-88.93 437.92,-95.91"/>
</g>
<!-- F -->
<g id="node9" class="node">
<title>F</title>
<ellipse fill="none" stroke="black" cx="297" cy="-135" rx="27" ry="18"/>
<text text-anchor="middle" x="297" y="-129.95" font-family="Times,serif" font-size="14.00">F</text>
</g>
<!-- D&#45;&gt;F -->
<g id="edge8" class="edge">
<title>D&#45;&gt;F</title>
<path fill="none" stroke="black" d="M234.4,-135C241.89,-135 250.18,-135 258.2,-135"/>
<polygon fill="black" stroke="black" points="258.1,-138.5 268.1,-135 258.1,-131.5 258.1,-138.5"/>
</g>
<!-- F&#45;&gt;E -->
<g id="edge10" class="edge">
<title>F&#45;&gt;E</title>
<path fill="none" stroke="black" d="M318.85,-124.1C329.63,-118.47 342.98,-111.49 354.94,-105.23"/>
<polygon fill="black" stroke="black" points="356.41,-108.42 363.65,-100.68 353.16,-102.21 356.41,-108.42"/>
</g>
<!-- G -->
<g id="node13" class="node">
<title>G</title>
<ellipse fill="none" stroke="black" cx="387" cy="-146" rx="27" ry="18"/>
<text text-anchor="middle" x="387" y="-140.95" font-family="Times,serif" font-size="14.00">G</text>
</g>
<!-- F&#45;&gt;G -->
<g id="edge14" class="edge">
<title>F&#45;&gt;G</title>
<path fill="none" stroke="black" d="M323.93,-138.24C331.65,-139.21 340.26,-140.28 348.56,-141.32"/>
<polygon fill="black" stroke="black" points="348.1,-144.79 358.45,-142.56 348.96,-137.84 348.1,-144.79"/>
</g>
<!-- I -->
<g id="node16" class="node">
<title>I</title>
<ellipse fill="none" stroke="black" cx="747" cy="-76" rx="27" ry="18"/>
<text text-anchor="middle" x="747" y="-70.95" font-family="Times,serif" font-size="14.00">I</text>
</g>
<!-- H&#45;&gt;I -->
<g id="edge18" class="edge">
<title>H&#45;&gt;I</title>
<path fill="none" stroke="black" d="M684.4,-76C691.89,-76 700.18,-76 708.2,-76"/>
<polygon fill="black" stroke="black" points="708.1,-79.5 718.1,-76 708.1,-72.5 708.1,-79.5"/>
</g>
<!-- V -->
<g id="node12" class="node">
<title>V</title>
<ellipse fill="none" stroke="black" cx="567" cy="-95" rx="27" ry="18"/>
<text text-anchor="middle" x="567" y="-89.95" font-family="Times,serif" font-size="14.00">V</text>
</g>
<!-- U&#45;&gt;V -->
<g id="edge12" class="edge">
<title>U&#45;&gt;V</title>
<path fill="none" stroke="black" d="M504.4,-95C511.89,-95 520.18,-95 528.2,-95"/>
<polygon fill="black" stroke="black" points="528.1,-98.5 538.1,-95 528.1,-91.5 528.1,-98.5"/>
</g>
<!-- V&#45;&gt;H -->
<g id="edge13" class="edge">
<title>V&#45;&gt;H</title>
<path fill="none" stroke="black" d="M592.98,-89.61C601.34,-87.8 610.84,-85.75 619.87,-83.8"/>
<polygon fill="black" stroke="black" points="620.44,-87.26 629.48,-81.73 618.96,-80.42 620.44,-87.26"/>
</g>
<!-- S -->
<g id="node14" class="node">
<title>S</title>
<ellipse fill="none" stroke="black" cx="477" cy="-149" rx="27" ry="18"/>
<text text-anchor="middle" x="477" y="-143.95" font-family="Times,serif" font-size="14.00">S</text>
</g>
<!-- G&#45;&gt;S -->
<g id="edge15" class="edge">
<title>G&#45;&gt;S</title>
<path fill="none" stroke="black" d="M414.4,-146.9C421.89,-147.16 430.18,-147.44 438.2,-147.71"/>
<polygon fill="black" stroke="black" points="437.99,-151.21 448.1,-148.05 438.23,-144.21 437.99,-151.21"/>
</g>
<!-- T -->
<g id="node15" class="node">
<title>T</title>
<ellipse fill="none" stroke="black" cx="657" cy="-135" rx="27" ry="18"/>
<text text-anchor="middle" x="657" y="-129.95" font-family="Times,serif" font-size="14.00">T</text>
</g>
<!-- S&#45;&gt;T -->
<g id="edge16" class="edge">
<title>S&#45;&gt;T</title>
<path fill="none" stroke="black" d="M504.26,-146.93C534.46,-144.56 584.24,-140.64 618.5,-137.95"/>
<polygon fill="black" stroke="black" points="618.71,-141.44 628.41,-137.17 618.17,-134.47 618.71,-141.44"/>
</g>
<!-- T&#45;&gt;I -->
<g id="edge17" class="edge">
<title>T&#45;&gt;I</title>
<path fill="none" stroke="black" d="M676.66,-122.49C688.6,-114.49 704.31,-103.95 717.76,-94.94"/>
<polygon fill="black" stroke="black" points="719.45,-98.02 725.8,-89.54 715.55,-92.2 719.45,-98.02"/>
</g>
<!-- I&#45;&gt;J -->
<g id="edge20" class="edge">
<title>I&#45;&gt;J</title>
<path fill="none" stroke="black" d="M767.53,-64.02C779.15,-56.88 794.11,-47.7 807.08,-39.75"/>
<polygon fill="black" stroke="black" points="808.54,-42.96 815.23,-34.74 804.88,-36.99 808.54,-42.96"/>
</g>
<!-- K -->
<g id="node17" class="node">
<title>K</title>
<ellipse fill="none" stroke="black" cx="927" cy="-76" rx="27" ry="18"/>
<text text-anchor="middle" x="927" y="-70.95" font-family="Times,serif" font-size="14.00">K</text>
</g>
<!-- I&#45;&gt;K -->
<g id="edge19" class="edge">
<title>I&#45;&gt;K</title>
<path fill="none" stroke="black" d="M774.26,-76C804.37,-76 853.96,-76 888.21,-76"/>
<polygon fill="black" stroke="black" points="888.11,-79.5 898.11,-76 888.11,-72.5 888.11,-79.5"/>
</g>
<!-- M -->
<g id="node19" class="node">
<title>M</title>
<ellipse fill="none" stroke="black" cx="1017" cy="-49" rx="27" ry="18"/>
<text text-anchor="middle" x="1017" y="-43.95" font-family="Times,serif" font-size="14.00">M</text>
</g>
<!-- K&#45;&gt;M -->
<g id="edge22" class="edge">
<title>K&#45;&gt;M</title>
<path fill="none" stroke="black" d="M952.05,-68.62C960.97,-65.88 971.29,-62.72 980.99,-59.74"/>
<polygon fill="black" stroke="black" points="982,-63.09 990.54,-56.81 979.95,-56.4 982,-63.09"/>
</g>
<!-- L&#45;&gt;M -->
<g id="edge23" class="edge">
<title>L&#45;&gt;M</title>
<path fill="none" stroke="black" d="M952.05,-29.38C960.97,-32.12 971.29,-35.28 980.99,-38.26"/>
<polygon fill="black" stroke="black" points="979.95,-41.6 990.54,-41.19 982,-34.91 979.95,-41.6"/>
</g>
</g>
</svg>
