<?xml version="1.0" encoding="UTF-8" standalone="no"?>
<!DOCTYPE svg PUBLIC "-//W3C//DTD SVG 1.1//EN"
 "http://www.w3.org/Graphics/SVG/1.1/DTD/svg11.dtd">
<!-- Generated by graphviz version 12.2.1 (20241206.2353)
 -->
<!-- Pages: 1 -->
<svg width="2477pt" height="182pt"
 viewBox="0.00 0.00 2476.84 182.00" xmlns="http://www.w3.org/2000/svg" xmlns:xlink="http://www.w3.org/1999/xlink">
<g id="graph0" class="graph" transform="scale(1 1) rotate(0) translate(4 178)">
<polygon fill="white" stroke="none" points="-4,4 -4,-178 2472.84,-178 2472.84,4 -4,4"/>
<!-- Am -->
<g id="node1" class="node">
<title>Am</title>
<ellipse fill="none" stroke="black" cx="27" cy="-76" rx="27" ry="18"/>
<text text-anchor="middle" x="27" y="-70.95" font-family="Times,serif" font-size="14.00">Am</text>
</g>
<!-- Ap -->
<g id="node2" class="node">
<title>Ap</title>
<ellipse fill="none" stroke="black" cx="123.75" cy="-76" rx="27" ry="18"/>
<text text-anchor="middle" x="123.75" y="-70.95" font-family="Times,serif" font-size="14.00">Ap</text>
</g>
<!-- Am&#45;&gt;Ap -->
<g id="edge1" class="edge">
<title>Am&#45;&gt;Ap</title>
<path fill="none" stroke="red" d="M54.39,-73C63.94,-73 74.91,-73 85.23,-73"/>
<path fill="none" stroke="green" d="M54.39,-75C63.94,-75 74.91,-75 85.23,-75"/>
<path fill="none" stroke="blue" d="M54.39,-77C63.94,-77 74.91,-77 85.23,-77"/>
<path fill="none" stroke="orange" d="M54.39,-79C63.94,-79 74.91,-79 85.23,-79"/>
<polygon fill="red" stroke="red" points="84.98,-79.5 94.98,-76 84.98,-72.5 84.98,-79.5"/>
<text text-anchor="middle" x="75.38" y="-79.2" font-family="Times,serif" font-size="14.00">4</text>
</g>
<!-- Bm -->
<g id="node3" class="node">
<title>Bm</title>
<ellipse fill="none" stroke="black" cx="220.5" cy="-130" rx="27" ry="18"/>
<text text-anchor="middle" x="220.5" y="-124.95" font-family="Times,serif" font-size="14.00">Bm</text>
</g>
<!-- Ap&#45;&gt;Bm -->
<g id="edge2" class="edge">
<title>Ap&#45;&gt;Bm</title>
<path fill="none" stroke="red" d="M145.34,-86.58C158.32,-93.98 175.43,-103.73 190,-112.04"/>
<path fill="none" stroke="green" d="M144.35,-88.32C157.33,-95.72 174.44,-105.47 189.01,-113.78"/>
<polygon fill="red" stroke="red" points="187.37,-115.72 197.79,-117.63 190.84,-109.64 187.37,-115.72"/>
<text text-anchor="middle" x="172.12" y="-107.82" font-family="Times,serif" font-size="14.00">2</text>
</g>
<!-- Cm -->
<g id="node4" class="node">
<title>Cm</title>
<ellipse fill="none" stroke="black" cx="220.5" cy="-76" rx="27" ry="18"/>
<text text-anchor="middle" x="220.5" y="-70.95" font-family="Times,serif" font-size="14.00">Cm</text>
</g>
<!-- Ap&#45;&gt;Cm -->
<g id="edge3" class="edge">
<title>Ap&#45;&gt;Cm</title>
<path fill="none" stroke="blue" d="M151.14,-76C160.69,-76 171.66,-76 181.98,-76"/>
<polygon fill="blue" stroke="blue" points="181.73,-79.5 191.73,-76 181.73,-72.5 181.73,-79.5"/>
<text text-anchor="middle" x="172.12" y="-79.2" font-family="Times,serif" font-size="14.00">1</text>
</g>
<!-- Xm -->
<g id="node5" class="node">
<title>Xm</title>
<ellipse fill="none" stroke="black" cx="220.5" cy="-20" rx="27" ry="18"/>
<text text-anchor="middle" x="220.5" y="-14.95" font-family="Times,serif" font-size="14.00">Xm</text>
</g>
<!-- Ap&#45;&gt;Xm -->
<g id="edge4" class="edge">
<title>Ap&#45;&gt;Xm</title>
<path fill="none" stroke="orange" d="M144.38,-64.4C157.51,-56.64 175.02,-46.29 189.83,-37.54"/>
<polygon fill="orange" stroke="orange" points="191.44,-40.65 198.26,-32.55 187.87,-34.63 191.44,-40.65"/>
<text text-anchor="middle" x="172.12" y="-52.88" font-family="Times,serif" font-size="14.00">1</text>
</g>
<!-- Bp -->
<g id="node6" class="node">
<title>Bp</title>
<ellipse fill="none" stroke="black" cx="317.25" cy="-130" rx="27" ry="18"/>
<text text-anchor="middle" x="317.25" y="-124.95" font-family="Times,serif" font-size="14.00">Bp</text>
</g>
<!-- Bm&#45;&gt;Bp -->
<g id="edge5" class="edge">
<title>Bm&#45;&gt;Bp</title>
<path fill="none" stroke="red" d="M247.89,-129C257.44,-129 268.41,-129 278.73,-129"/>
<path fill="none" stroke="green" d="M247.89,-131C257.44,-131 268.41,-131 278.73,-131"/>
<polygon fill="red" stroke="red" points="278.48,-133.5 288.48,-130 278.48,-126.5 278.48,-133.5"/>
<text text-anchor="middle" x="268.88" y="-133.2" font-family="Times,serif" font-size="14.00">2</text>
</g>
<!-- Cp -->
<g id="node8" class="node">
<title>Cp</title>
<ellipse fill="none" stroke="black" cx="317.25" cy="-76" rx="27" ry="18"/>
<text text-anchor="middle" x="317.25" y="-70.95" font-family="Times,serif" font-size="14.00">Cp</text>
</g>
<!-- Cm&#45;&gt;Cp -->
<g id="edge7" class="edge">
<title>Cm&#45;&gt;Cp</title>
<path fill="none" stroke="blue" d="M247.89,-76C257.44,-76 268.41,-76 278.73,-76"/>
<polygon fill="blue" stroke="blue" points="278.48,-79.5 288.48,-76 278.48,-72.5 278.48,-79.5"/>
<text text-anchor="middle" x="268.88" y="-79.2" font-family="Times,serif" font-size="14.00">1</text>
</g>
<!-- Xp -->
<g id="node10" class="node">
<title>Xp</title>
<ellipse fill="none" stroke="black" cx="389.25" cy="-18" rx="27" ry="18"/>
<text text-anchor="middle" x="389.25" y="-12.95" font-family="Times,serif" font-size="14.00">Xp</text>
</g>
<!-- Xm&#45;&gt;Xp -->
<g id="edge9" class="edge">
<title>Xm&#45;&gt;Xp</title>
<path fill="none" stroke="orange" d="M247.92,-19.68C275.61,-19.35 319.35,-18.83 350.63,-18.45"/>
<polygon fill="orange" stroke="orange" points="350.48,-21.95 360.44,-18.33 350.4,-14.95 350.48,-21.95"/>
<text text-anchor="middle" x="268.88" y="-22.66" font-family="Times,serif" font-size="14.00">1</text>
</g>
<!-- Dm -->
<g id="node7" class="node">
<title>Dm</title>
<ellipse fill="none" stroke="black" cx="461.25" cy="-130" rx="27" ry="18"/>
<text text-anchor="middle" x="461.25" y="-124.95" font-family="Times,serif" font-size="14.00">Dm</text>
</g>
<!-- Bp&#45;&gt;Dm -->
<g id="edge6" class="edge">
<title>Bp&#45;&gt;Dm</title>
<path fill="none" stroke="red" d="M344.63,-129C366.55,-129 398.01,-129 422.58,-129"/>
<path fill="none" stroke="green" d="M344.63,-131C366.55,-131 398.01,-131 422.58,-131"/>
<polygon fill="red" stroke="red" points="422.5,-133.5 432.5,-130 422.5,-126.5 422.5,-133.5"/>
<text text-anchor="middle" x="389.25" y="-133.2" font-family="Times,serif" font-size="14.00">2</text>
</g>
<!-- Dp -->
<g id="node19" class="node">
<title>Dp</title>
<ellipse fill="none" stroke="black" cx="558" cy="-130" rx="27" ry="18"/>
<text text-anchor="middle" x="558" y="-124.95" font-family="Times,serif" font-size="14.00">Dp</text>
</g>
<!-- Dm&#45;&gt;Dp -->
<g id="edge18" class="edge">
<title>Dm&#45;&gt;Dp</title>
<path fill="none" stroke="red" d="M488.64,-129C498.19,-129 509.16,-129 519.48,-129"/>
<path fill="none" stroke="green" d="M488.64,-131C498.19,-131 509.16,-131 519.48,-131"/>
<polygon fill="red" stroke="red" points="519.23,-133.5 529.23,-130 519.23,-126.5 519.23,-133.5"/>
<text text-anchor="middle" x="509.62" y="-133.2" font-family="Times,serif" font-size="14.00">2</text>
</g>
<!-- Ym -->
<g id="node9" class="node">
<title>Ym</title>
<ellipse fill="none" stroke="black" cx="461.25" cy="-76" rx="27" ry="18"/>
<text text-anchor="middle" x="461.25" y="-70.95" font-family="Times,serif" font-size="14.00">Ym</text>
</g>
<!-- Cp&#45;&gt;Ym -->
<g id="edge8" class="edge">
<title>Cp&#45;&gt;Ym</title>
<path fill="none" stroke="blue" d="M344.63,-76C366.55,-76 398.01,-76 422.58,-76"/>
<polygon fill="blue" stroke="blue" points="422.5,-79.5 432.5,-76 422.5,-72.5 422.5,-79.5"/>
<text text-anchor="middle" x="389.25" y="-79.2" font-family="Times,serif" font-size="14.00">1</text>
</g>
<!-- Yp -->
<g id="node14" class="node">
<title>Yp</title>
<ellipse fill="none" stroke="black" cx="630" cy="-78" rx="27" ry="18"/>
<text text-anchor="middle" x="630" y="-72.95" font-family="Times,serif" font-size="14.00">Yp</text>
</g>
<!-- Ym&#45;&gt;Yp -->
<g id="edge13" class="edge">
<title>Ym&#45;&gt;Yp</title>
<path fill="none" stroke="blue" d="M488.67,-76.32C516.36,-76.65 560.1,-77.17 591.38,-77.55"/>
<polygon fill="blue" stroke="blue" points="591.15,-81.05 601.19,-77.67 591.23,-74.05 591.15,-81.05"/>
<text text-anchor="middle" x="509.62" y="-79.78" font-family="Times,serif" font-size="14.00">1</text>
</g>
<!-- Jm -->
<g id="node11" class="node">
<title>Jm</title>
<ellipse fill="none" stroke="black" cx="1910.25" cy="-40" rx="27" ry="18"/>
<text text-anchor="middle" x="1910.25" y="-34.95" font-family="Times,serif" font-size="14.00">Jm</text>
</g>
<!-- Xp&#45;&gt;Jm -->
<g id="edge10" class="edge">
<title>Xp&#45;&gt;Jm</title>
<path fill="none" stroke="orange" d="M416.58,-18C440.57,-18 476.98,-18 508.62,-18 508.62,-18 508.62,-18 1814.5,-18 1835.1,-18 1857.58,-23 1875.47,-28.23"/>
<polygon fill="orange" stroke="orange" points="1874.2,-31.49 1884.79,-31.11 1876.27,-24.81 1874.2,-31.49"/>
<text text-anchor="middle" x="1137.38" y="-21.2" font-family="Times,serif" font-size="14.00">1</text>
</g>
<!-- Jp -->
<g id="node12" class="node">
<title>Jp</title>
<ellipse fill="none" stroke="black" cx="2007" cy="-46" rx="27" ry="18"/>
<text text-anchor="middle" x="2007" y="-40.95" font-family="Times,serif" font-size="14.00">Jp</text>
</g>
<!-- Jm&#45;&gt;Jp -->
<g id="edge11" class="edge">
<title>Jm&#45;&gt;Jp</title>
<path fill="none" stroke="red" d="M1937.45,-40.66C1947.01,-41.26 1958.01,-41.96 1968.37,-42.62"/>
<path fill="none" stroke="orange" d="M1937.33,-42.65C1946.88,-43.26 1957.88,-43.96 1968.24,-44.61"/>
<polygon fill="red" stroke="red" points="1967.9,-47.09 1978.1,-44.23 1968.35,-40.11 1967.9,-47.09"/>
<text text-anchor="middle" x="1958.62" y="-46.38" font-family="Times,serif" font-size="14.00">2</text>
</g>
<!-- Lm -->
<g id="node13" class="node">
<title>Lm</title>
<ellipse fill="none" stroke="black" cx="2151" cy="-46" rx="27" ry="18"/>
<text text-anchor="middle" x="2151" y="-40.95" font-family="Times,serif" font-size="14.00">Lm</text>
</g>
<!-- Jp&#45;&gt;Lm -->
<g id="edge12" class="edge">
<title>Jp&#45;&gt;Lm</title>
<path fill="none" stroke="red" d="M2034.38,-45C2056.3,-45 2087.76,-45 2112.33,-45"/>
<path fill="none" stroke="orange" d="M2034.38,-47C2056.3,-47 2087.76,-47 2112.33,-47"/>
<polygon fill="red" stroke="red" points="2112.25,-49.5 2122.25,-46 2112.25,-42.5 2112.25,-49.5"/>
<text text-anchor="middle" x="2079" y="-49.2" font-family="Times,serif" font-size="14.00">2</text>
</g>
<!-- Lp -->
<g id="node37" class="node">
<title>Lp</title>
<ellipse fill="none" stroke="black" cx="2247.75" cy="-46" rx="27" ry="18"/>
<text text-anchor="middle" x="2247.75" y="-40.95" font-family="Times,serif" font-size="14.00">Lp</text>
</g>
<!-- Lm&#45;&gt;Lp -->
<g id="edge40" class="edge">
<title>Lm&#45;&gt;Lp</title>
<path fill="none" stroke="red" d="M2178.39,-45C2187.94,-45 2198.91,-45 2209.23,-45"/>
<path fill="none" stroke="orange" d="M2178.39,-47C2187.94,-47 2198.91,-47 2209.23,-47"/>
<polygon fill="red" stroke="red" points="2208.98,-49.5 2218.98,-46 2208.98,-42.5 2208.98,-49.5"/>
<text text-anchor="middle" x="2199.38" y="-49.2" font-family="Times,serif" font-size="14.00">2</text>
</g>
<!-- Em -->
<g id="node15" class="node">
<title>Em</title>
<ellipse fill="none" stroke="black" cx="895.5" cy="-90" rx="27" ry="18"/>
<text text-anchor="middle" x="895.5" y="-84.95" font-family="Times,serif" font-size="14.00">Em</text>
</g>
<!-- Yp&#45;&gt;Em -->
<g id="edge14" class="edge">
<title>Yp&#45;&gt;Em</title>
<path fill="none" stroke="blue" d="M657.23,-79.19C704.19,-81.33 802.75,-85.82 856.9,-88.29"/>
<polygon fill="blue" stroke="blue" points="856.72,-91.78 866.87,-88.74 857.03,-84.79 856.72,-91.78"/>
<text text-anchor="middle" x="750.38" y="-86.71" font-family="Times,serif" font-size="14.00">1</text>
</g>
<!-- Ep -->
<g id="node16" class="node">
<title>Ep</title>
<ellipse fill="none" stroke="black" cx="992.25" cy="-90" rx="27" ry="18"/>
<text text-anchor="middle" x="992.25" y="-84.95" font-family="Times,serif" font-size="14.00">Ep</text>
</g>
<!-- Em&#45;&gt;Ep -->
<g id="edge15" class="edge">
<title>Em&#45;&gt;Ep</title>
<path fill="none" stroke="red" d="M922.89,-89C932.44,-89 943.41,-89 953.73,-89"/>
<path fill="none" stroke="blue" d="M922.89,-91C932.44,-91 943.41,-91 953.73,-91"/>
<polygon fill="red" stroke="red" points="953.48,-93.5 963.48,-90 953.48,-86.5 953.48,-93.5"/>
<text text-anchor="middle" x="943.88" y="-93.2" font-family="Times,serif" font-size="14.00">2</text>
</g>
<!-- Hm -->
<g id="node17" class="node">
<title>Hm</title>
<ellipse fill="none" stroke="black" cx="1523.25" cy="-96" rx="27" ry="18"/>
<text text-anchor="middle" x="1523.25" y="-90.95" font-family="Times,serif" font-size="14.00">Hm</text>
</g>
<!-- Ep&#45;&gt;Hm -->
<g id="edge16" class="edge">
<title>Ep&#45;&gt;Hm</title>
<path fill="none" stroke="blue" d="M1013.21,-78.3C1031.89,-68.46 1060.91,-56 1088,-56 1088,-56 1088,-56 1380.25,-56 1419.14,-56 1461.85,-70.07 1490.17,-81.52"/>
<polygon fill="blue" stroke="blue" points="1488.67,-84.69 1499.25,-85.32 1491.38,-78.23 1488.67,-84.69"/>
<text text-anchor="middle" x="1234.12" y="-59.2" font-family="Times,serif" font-size="14.00">1</text>
</g>
<!-- Um -->
<g id="node18" class="node">
<title>Um</title>
<ellipse fill="none" stroke="black" cx="1089" cy="-102" rx="27" ry="18"/>
<text text-anchor="middle" x="1089" y="-96.95" font-family="Times,serif" font-size="14.00">Um</text>
</g>
<!-- Ep&#45;&gt;Um -->
<g id="edge17" class="edge">
<title>Ep&#45;&gt;Um</title>
<path fill="none" stroke="red" d="M1019.14,-93.28C1028.96,-94.52 1040.34,-95.96 1050.99,-97.31"/>
<polygon fill="red" stroke="red" points="1050.28,-100.75 1060.64,-98.53 1051.16,-93.81 1050.28,-100.75"/>
<text text-anchor="middle" x="1040.62" y="-99.56" font-family="Times,serif" font-size="14.00">1</text>
</g>
<!-- Hp -->
<g id="node23" class="node">
<title>Hp</title>
<ellipse fill="none" stroke="black" cx="1620" cy="-96" rx="27" ry="18"/>
<text text-anchor="middle" x="1620" y="-90.95" font-family="Times,serif" font-size="14.00">Hp</text>
</g>
<!-- Hm&#45;&gt;Hp -->
<g id="edge23" class="edge">
<title>Hm&#45;&gt;Hp</title>
<path fill="none" stroke="red" d="M1550.64,-95C1560.19,-95 1571.16,-95 1581.48,-95"/>
<path fill="none" stroke="blue" d="M1550.64,-97C1560.19,-97 1571.16,-97 1581.48,-97"/>
<polygon fill="red" stroke="red" points="1581.23,-99.5 1591.23,-96 1581.23,-92.5 1581.23,-99.5"/>
<text text-anchor="middle" x="1571.62" y="-99.2" font-family="Times,serif" font-size="14.00">2</text>
</g>
<!-- Up -->
<g id="node25" class="node">
<title>Up</title>
<ellipse fill="none" stroke="black" cx="1185.75" cy="-102" rx="27" ry="18"/>
<text text-anchor="middle" x="1185.75" y="-96.95" font-family="Times,serif" font-size="14.00">Up</text>
</g>
<!-- Um&#45;&gt;Up -->
<g id="edge25" class="edge">
<title>Um&#45;&gt;Up</title>
<path fill="none" stroke="red" d="M1116.39,-102C1125.94,-102 1136.91,-102 1147.23,-102"/>
<polygon fill="red" stroke="red" points="1146.98,-105.5 1156.98,-102 1146.98,-98.5 1146.98,-105.5"/>
<text text-anchor="middle" x="1137.38" y="-105.2" font-family="Times,serif" font-size="14.00">1</text>
</g>
<!-- Fm -->
<g id="node20" class="node">
<title>Fm</title>
<ellipse fill="none" stroke="black" cx="702" cy="-130" rx="27" ry="18"/>
<text text-anchor="middle" x="702" y="-124.95" font-family="Times,serif" font-size="14.00">Fm</text>
</g>
<!-- Dp&#45;&gt;Fm -->
<g id="edge19" class="edge">
<title>Dp&#45;&gt;Fm</title>
<path fill="none" stroke="red" d="M585.38,-129C607.3,-129 638.76,-129 663.33,-129"/>
<path fill="none" stroke="green" d="M585.38,-131C607.3,-131 638.76,-131 663.33,-131"/>
<polygon fill="red" stroke="red" points="663.25,-133.5 673.25,-130 663.25,-126.5 663.25,-133.5"/>
<text text-anchor="middle" x="630" y="-133.2" font-family="Times,serif" font-size="14.00">2</text>
</g>
<!-- Fp -->
<g id="node21" class="node">
<title>Fp</title>
<ellipse fill="none" stroke="black" cx="798.75" cy="-130" rx="27" ry="18"/>
<text text-anchor="middle" x="798.75" y="-124.95" font-family="Times,serif" font-size="14.00">Fp</text>
</g>
<!-- Fm&#45;&gt;Fp -->
<g id="edge20" class="edge">
<title>Fm&#45;&gt;Fp</title>
<path fill="none" stroke="red" d="M729.39,-129C738.94,-129 749.91,-129 760.23,-129"/>
<path fill="none" stroke="green" d="M729.39,-131C738.94,-131 749.91,-131 760.23,-131"/>
<polygon fill="red" stroke="red" points="759.98,-133.5 769.98,-130 759.98,-126.5 759.98,-133.5"/>
<text text-anchor="middle" x="750.38" y="-133.2" font-family="Times,serif" font-size="14.00">2</text>
</g>
<!-- Fp&#45;&gt;Em -->
<g id="edge21" class="edge">
<title>Fp&#45;&gt;Em</title>
<path fill="none" stroke="red" d="M822.2,-120.52C834,-115.54 848.69,-109.34 861.73,-103.83"/>
<polygon fill="red" stroke="red" points="862.96,-107.11 870.81,-100 860.24,-100.66 862.96,-107.11"/>
<text text-anchor="middle" x="847.12" y="-114.4" font-family="Times,serif" font-size="14.00">1</text>
</g>
<!-- Gm -->
<g id="node22" class="node">
<title>Gm</title>
<ellipse fill="none" stroke="black" cx="895.5" cy="-153" rx="27" ry="18"/>
<text text-anchor="middle" x="895.5" y="-147.95" font-family="Times,serif" font-size="14.00">Gm</text>
</g>
<!-- Fp&#45;&gt;Gm -->
<g id="edge22" class="edge">
<title>Fp&#45;&gt;Gm</title>
<path fill="none" stroke="green" d="M824.64,-136.04C835.09,-138.58 847.43,-141.57 858.82,-144.34"/>
<polygon fill="green" stroke="green" points="857.76,-147.68 868.3,-146.64 859.41,-140.88 857.76,-147.68"/>
<text text-anchor="middle" x="847.12" y="-145.39" font-family="Times,serif" font-size="14.00">1</text>
</g>
<!-- Gp -->
<g id="node28" class="node">
<title>Gp</title>
<ellipse fill="none" stroke="black" cx="992.25" cy="-154" rx="27" ry="18"/>
<text text-anchor="middle" x="992.25" y="-148.95" font-family="Times,serif" font-size="14.00">Gp</text>
</g>
<!-- Gm&#45;&gt;Gp -->
<g id="edge29" class="edge">
<title>Gm&#45;&gt;Gp</title>
<path fill="none" stroke="green" d="M922.89,-153.28C932.44,-153.38 943.41,-153.5 953.73,-153.6"/>
<polygon fill="green" stroke="green" points="953.45,-157.1 963.48,-153.71 953.52,-150.1 953.45,-157.1"/>
<text text-anchor="middle" x="943.88" y="-156.73" font-family="Times,serif" font-size="14.00">1</text>
</g>
<!-- Im -->
<g id="node24" class="node">
<title>Im</title>
<ellipse fill="none" stroke="black" cx="1716.75" cy="-96" rx="27" ry="18"/>
<text text-anchor="middle" x="1716.75" y="-90.95" font-family="Times,serif" font-size="14.00">Im</text>
</g>
<!-- Hp&#45;&gt;Im -->
<g id="edge24" class="edge">
<title>Hp&#45;&gt;Im</title>
<path fill="none" stroke="red" d="M1647.39,-95C1656.94,-95 1667.91,-95 1678.23,-95"/>
<path fill="none" stroke="blue" d="M1647.39,-97C1656.94,-97 1667.91,-97 1678.23,-97"/>
<polygon fill="red" stroke="red" points="1677.98,-99.5 1687.98,-96 1677.98,-92.5 1677.98,-99.5"/>
<text text-anchor="middle" x="1668.38" y="-99.2" font-family="Times,serif" font-size="14.00">2</text>
</g>
<!-- Ip -->
<g id="node33" class="node">
<title>Ip</title>
<ellipse fill="none" stroke="black" cx="1813.5" cy="-94" rx="27" ry="18"/>
<text text-anchor="middle" x="1813.5" y="-88.95" font-family="Times,serif" font-size="14.00">Ip</text>
</g>
<!-- Im&#45;&gt;Ip -->
<g id="edge35" class="edge">
<title>Im&#45;&gt;Ip</title>
<path fill="none" stroke="red" d="M1744.1,-93.44C1753.65,-93.24 1764.62,-93.01 1774.94,-92.79"/>
<path fill="none" stroke="green" d="M1744.14,-95.44C1753.69,-95.24 1764.66,-95.01 1774.98,-94.79"/>
<path fill="none" stroke="blue" d="M1744.19,-97.44C1753.73,-97.24 1764.71,-97.01 1775.03,-96.79"/>
<polygon fill="red" stroke="red" points="1774.81,-98.3 1784.74,-94.59 1774.66,-91.3 1774.81,-98.3"/>
<text text-anchor="middle" x="1765.12" y="-98.26" font-family="Times,serif" font-size="14.00">3</text>
</g>
<!-- Vm -->
<g id="node26" class="node">
<title>Vm</title>
<ellipse fill="none" stroke="black" cx="1282.5" cy="-102" rx="27" ry="18"/>
<text text-anchor="middle" x="1282.5" y="-96.95" font-family="Times,serif" font-size="14.00">Vm</text>
</g>
<!-- Up&#45;&gt;Vm -->
<g id="edge26" class="edge">
<title>Up&#45;&gt;Vm</title>
<path fill="none" stroke="red" d="M1213.14,-102C1222.69,-102 1233.66,-102 1243.98,-102"/>
<polygon fill="red" stroke="red" points="1243.73,-105.5 1253.73,-102 1243.73,-98.5 1243.73,-105.5"/>
<text text-anchor="middle" x="1234.12" y="-105.2" font-family="Times,serif" font-size="14.00">1</text>
</g>
<!-- Vp -->
<g id="node27" class="node">
<title>Vp</title>
<ellipse fill="none" stroke="black" cx="1379.25" cy="-102" rx="27" ry="18"/>
<text text-anchor="middle" x="1379.25" y="-96.95" font-family="Times,serif" font-size="14.00">Vp</text>
</g>
<!-- Vm&#45;&gt;Vp -->
<g id="edge27" class="edge">
<title>Vm&#45;&gt;Vp</title>
<path fill="none" stroke="red" d="M1309.89,-102C1319.44,-102 1330.41,-102 1340.73,-102"/>
<polygon fill="red" stroke="red" points="1340.48,-105.5 1350.48,-102 1340.48,-98.5 1340.48,-105.5"/>
<text text-anchor="middle" x="1330.88" y="-105.2" font-family="Times,serif" font-size="14.00">1</text>
</g>
<!-- Vp&#45;&gt;Hm -->
<g id="edge28" class="edge">
<title>Vp&#45;&gt;Hm</title>
<path fill="none" stroke="red" d="M1406.3,-100.43C1412.2,-100.1 1418.44,-99.77 1424.25,-99.5 1444.2,-98.58 1466.44,-97.77 1484.69,-97.16"/>
<polygon fill="red" stroke="red" points="1484.65,-100.66 1494.53,-96.84 1484.42,-93.66 1484.65,-100.66"/>
<text text-anchor="middle" x="1451.25" y="-102.7" font-family="Times,serif" font-size="14.00">1</text>
</g>
<!-- Sm -->
<g id="node29" class="node">
<title>Sm</title>
<ellipse fill="none" stroke="black" cx="1089" cy="-156" rx="27" ry="18"/>
<text text-anchor="middle" x="1089" y="-150.95" font-family="Times,serif" font-size="14.00">Sm</text>
</g>
<!-- Gp&#45;&gt;Sm -->
<g id="edge30" class="edge">
<title>Gp&#45;&gt;Sm</title>
<path fill="none" stroke="green" d="M1019.64,-154.56C1029.19,-154.76 1040.16,-154.99 1050.48,-155.21"/>
<polygon fill="green" stroke="green" points="1050.16,-158.7 1060.24,-155.41 1050.31,-151.7 1050.16,-158.7"/>
<text text-anchor="middle" x="1040.62" y="-158.26" font-family="Times,serif" font-size="14.00">1</text>
</g>
<!-- Sp -->
<g id="node30" class="node">
<title>Sp</title>
<ellipse fill="none" stroke="black" cx="1185.75" cy="-156" rx="27" ry="18"/>
<text text-anchor="middle" x="1185.75" y="-150.95" font-family="Times,serif" font-size="14.00">Sp</text>
</g>
<!-- Sm&#45;&gt;Sp -->
<g id="edge31" class="edge">
<title>Sm&#45;&gt;Sp</title>
<path fill="none" stroke="green" d="M1116.39,-156C1125.94,-156 1136.91,-156 1147.23,-156"/>
<polygon fill="green" stroke="green" points="1146.98,-159.5 1156.98,-156 1146.98,-152.5 1146.98,-159.5"/>
<text text-anchor="middle" x="1137.38" y="-159.2" font-family="Times,serif" font-size="14.00">1</text>
</g>
<!-- Tm -->
<g id="node31" class="node">
<title>Tm</title>
<ellipse fill="none" stroke="black" cx="1282.5" cy="-156" rx="27" ry="18"/>
<text text-anchor="middle" x="1282.5" y="-150.95" font-family="Times,serif" font-size="14.00">Tm</text>
</g>
<!-- Sp&#45;&gt;Tm -->
<g id="edge32" class="edge">
<title>Sp&#45;&gt;Tm</title>
<path fill="none" stroke="green" d="M1213.14,-156C1222.69,-156 1233.66,-156 1243.98,-156"/>
<polygon fill="green" stroke="green" points="1243.73,-159.5 1253.73,-156 1243.73,-152.5 1243.73,-159.5"/>
<text text-anchor="middle" x="1234.12" y="-159.2" font-family="Times,serif" font-size="14.00">1</text>
</g>
<!-- Tp -->
<g id="node32" class="node">
<title>Tp</title>
<ellipse fill="none" stroke="black" cx="1451.25" cy="-143" rx="27" ry="18"/>
<text text-anchor="middle" x="1451.25" y="-137.95" font-family="Times,serif" font-size="14.00">Tp</text>
</g>
<!-- Tm&#45;&gt;Tp -->
<g id="edge33" class="edge">
<title>Tm&#45;&gt;Tp</title>
<path fill="none" stroke="green" d="M1309.55,-153.97C1337.25,-151.81 1381.3,-148.38 1412.74,-145.92"/>
<polygon fill="green" stroke="green" points="1412.9,-149.42 1422.59,-145.16 1412.35,-142.44 1412.9,-149.42"/>
<text text-anchor="middle" x="1330.88" y="-155.66" font-family="Times,serif" font-size="14.00">1</text>
</g>
<!-- Tp&#45;&gt;Im -->
<g id="edge34" class="edge">
<title>Tp&#45;&gt;Im</title>
<path fill="none" stroke="green" d="M1478.44,-143.6C1520.48,-143.75 1605.04,-140.72 1671.75,-117 1676.02,-115.48 1680.44,-113.68 1684.74,-111.77"/>
<polygon fill="green" stroke="green" points="1686.13,-114.99 1693.72,-107.59 1683.18,-108.64 1686.13,-114.99"/>
<text text-anchor="middle" x="1571.62" y="-141.98" font-family="Times,serif" font-size="14.00">1</text>
</g>
<!-- Ip&#45;&gt;Jm -->
<g id="edge37" class="edge">
<title>Ip&#45;&gt;Jm</title>
<path fill="none" stroke="red" d="M1834.59,-82.55C1847.57,-75.15 1864.69,-65.4 1879.26,-57.09"/>
<polygon fill="red" stroke="red" points="1880.59,-60.36 1887.54,-52.37 1877.12,-54.28 1880.59,-60.36"/>
<text text-anchor="middle" x="1861.88" y="-71.82" font-family="Times,serif" font-size="14.00">1</text>
</g>
<!-- Km -->
<g id="node34" class="node">
<title>Km</title>
<ellipse fill="none" stroke="black" cx="1910.25" cy="-94" rx="27" ry="18"/>
<text text-anchor="middle" x="1910.25" y="-88.95" font-family="Times,serif" font-size="14.00">Km</text>
</g>
<!-- Ip&#45;&gt;Km -->
<g id="edge36" class="edge">
<title>Ip&#45;&gt;Km</title>
<path fill="none" stroke="green" d="M1840.89,-93C1850.44,-93 1861.41,-93 1871.73,-93"/>
<path fill="none" stroke="blue" d="M1840.89,-95C1850.44,-95 1861.41,-95 1871.73,-95"/>
<polygon fill="green" stroke="green" points="1871.48,-97.5 1881.48,-94 1871.48,-90.5 1871.48,-97.5"/>
<text text-anchor="middle" x="1861.88" y="-97.2" font-family="Times,serif" font-size="14.00">2</text>
</g>
<!-- Kp -->
<g id="node35" class="node">
<title>Kp</title>
<ellipse fill="none" stroke="black" cx="2079" cy="-92" rx="27" ry="18"/>
<text text-anchor="middle" x="2079" y="-86.95" font-family="Times,serif" font-size="14.00">Kp</text>
</g>
<!-- Km&#45;&gt;Kp -->
<g id="edge38" class="edge">
<title>Km&#45;&gt;Kp</title>
<path fill="none" stroke="green" d="M1937.66,-92.68C1965.35,-92.35 2009.08,-91.83 2040.37,-91.45"/>
<path fill="none" stroke="blue" d="M1937.68,-94.68C1965.37,-94.35 2009.11,-93.83 2040.39,-93.45"/>
<polygon fill="green" stroke="green" points="2040.23,-95.95 2050.19,-92.33 2040.15,-88.95 2040.23,-95.95"/>
<text text-anchor="middle" x="1958.62" y="-96.66" font-family="Times,serif" font-size="14.00">2</text>
</g>
<!-- Mm -->
<g id="node36" class="node">
<title>Mm</title>
<ellipse fill="none" stroke="black" cx="2344.8" cy="-69" rx="27.3" ry="18"/>
<text text-anchor="middle" x="2344.8" y="-63.95" font-family="Times,serif" font-size="14.00">Mm</text>
</g>
<!-- Kp&#45;&gt;Mm -->
<g id="edge39" class="edge">
<title>Kp&#45;&gt;Mm</title>
<path fill="none" stroke="green" d="M2106.44,-90.48C2147.79,-89.4 2230.19,-86.2 2299.37,-77.01 2301.97,-76.66 2304.68,-76.25 2307.38,-75.8"/>
<path fill="none" stroke="blue" d="M2106.49,-92.48C2147.87,-91.4 2230.27,-88.2 2299.63,-78.99 2302.28,-78.64 2304.98,-78.23 2307.71,-77.77"/>
<polygon fill="green" stroke="green" points="2307.91,-80.27 2317.11,-75.02 2306.64,-73.39 2307.91,-80.27"/>
<text text-anchor="middle" x="2199.38" y="-90.61" font-family="Times,serif" font-size="14.00">2</text>
</g>
<!-- Mp -->
<g id="node38" class="node">
<title>Mp</title>
<ellipse fill="none" stroke="black" cx="2441.84" cy="-69" rx="27" ry="18"/>
<text text-anchor="middle" x="2441.84" y="-63.95" font-family="Times,serif" font-size="14.00">Mp</text>
</g>
<!-- Mm&#45;&gt;Mp -->
<g id="edge42" class="edge">
<title>Mm&#45;&gt;Mp</title>
<path fill="none" stroke="red" d="M2372.53,-66C2382.1,-66 2393.08,-66 2403.39,-66"/>
<path fill="none" stroke="green" d="M2372.53,-68C2382.1,-68 2393.08,-68 2403.39,-68"/>
<path fill="none" stroke="blue" d="M2372.53,-70C2382.1,-70 2393.08,-70 2403.39,-70"/>
<path fill="none" stroke="orange" d="M2372.53,-72C2382.1,-72 2393.08,-72 2403.39,-72"/>
<polygon fill="red" stroke="red" points="2403.13,-72.5 2413.13,-69 2403.13,-65.5 2403.13,-72.5"/>
<text text-anchor="middle" x="2393.47" y="-72.2" font-family="Times,serif" font-size="14.00">4</text>
</g>
<!-- Lp&#45;&gt;Mm -->
<g id="edge41" class="edge">
<title>Lp&#45;&gt;Mm</title>
<path fill="none" stroke="red" d="M2273.96,-51.07C2284.35,-53.59 2296.62,-56.56 2307.97,-59.3"/>
<path fill="none" stroke="orange" d="M2273.49,-53.01C2283.88,-55.53 2296.15,-58.5 2307.49,-61.24"/>
<polygon fill="red" stroke="red" points="2306.65,-63.61 2317.19,-62.56 2308.29,-56.81 2306.65,-63.61"/>
<text text-anchor="middle" x="2296.12" y="-61.39" font-family="Times,serif" font-size="14.00">2</text>
</g>
</g>
</svg>
